<?xml version="1.0" encoding="UTF-8"?><svg id="Layer_1" xmlns="http://www.w3.org/2000/svg" xmlns:xlink="http://www.w3.org/1999/xlink" viewBox="0 0 800 500"><defs><style>.cls-1{clip-path:url(#clippath);}.cls-2,.cls-3{fill:#010101;}.cls-4{fill:#003f46;}.cls-5{fill:#01737c;}.cls-6{fill:#eb008b;}.cls-7{fill:#fff;}.cls-8{fill:#686766;}.cls-9{fill:#c1bca1;}.cls-10,.cls-11{fill:#a8195f;}.cls-12{fill:#10aab8;}.cls-13{fill:#363635;}.cls-14{fill:#721812;}.cls-15{fill:#515150;}.cls-3{stroke:#010101;stroke-miterlimit:10;stroke-width:4px;}.cls-16{clip-path:url(#clippath-1);}.cls-17{clip-path:url(#clippath-4);}.cls-18{clip-path:url(#clippath-3);}.cls-19{clip-path:url(#clippath-2);}.cls-20{clip-path:url(#clippath-5);}.cls-11{opacity:.2;}</style><clipPath id="clippath"><path class="cls-10" d="M712.45,40.56l-58.95,57.58c-9.89-7.38-38.73-14.74-38.73-14.74l15.08-8.57-4.11,6.85,19.88-14.05-14.05,15.08,29.47-20.77-22.27,22.19,40.1-31.24-33,33.55,49.45-39.38-42.16,42.5,59.29-49.01Zm-158.75,40.49c-49.85,0-76.99-13.96-147.71-13.96,68.78,5.42,90.02,32.24,138.01,28.59,39.27-2.99,71.35-3.44,98.69,6.99-1.39-.23-2.79-.41-4.2-.47-4.34-.18-8.71,.4-12.85,1.63-4.15,1.23-8.07,3.05-11.75,5.19-7.35,4.34-13.64,10.13-18.96,16.56-5.27,6.48-9.64,13.64-12.76,21.27,4.67-6.78,9.71-13.19,15.4-18.9,5.64-5.73,11.9-10.8,18.77-14.64,6.86-3.85,14.42-6.22,22.12-6.54,1.93-.07,3.86-.02,5.8,.16,1.94,.21,3.87,.55,5.8,.99,3.85,.94,7.63,2.39,11.39,4.15,6.42,4.09,12.58,9.02,18.5,14.92-3.94-3.5-8.65-6.23-13.92-7.57-3.73-.98-7.66-1.2-11.5-.8-3.84,.4-7.56,1.45-11.1,2.85-7.08,2.86-13.35,7.24-18.94,12.2-5.56,5.02-10.49,10.66-14.73,16.75,5.04-5.44,10.33-10.61,16.08-15.15,5.73-4.54,11.94-8.5,18.65-11.09,6.69-2.6,13.96-3.57,20.94-2.16,7.01,1.36,13.41,5.14,19.17,9.82,6.53,7.22,12.78,15.71,18.82,25.66-2.51-5.48-5.28-10.85-8.42-15.7-17.73-27.42-33.17-37.43-33.17-37.43,0,0,59.89-68.76,70.46-64.9,15.52,5.68-2.41,137.05-7.36,162.06,12.48-54.8,26.08-178.99,9.02-178.99-49.8,0-93.06,58.48-180.25,58.48"/></clipPath><clipPath id="clippath-1"><path class="cls-10" d="M535.63,123.56c-6.79,4.28-13.12,9.19-19.26,14.23-4.03,3.26-8.02,6.53-12.11,9.65,1.7-1.64,3.34-3.33,4.92-5.04,4.53-4.82,8.74-9.78,13.5-14.16,4.7-4.46,9.94-8.29,15.62-11.7-6.32,2.01-12.21,5.44-17.41,9.65-5.19,4.24-9.7,9.19-14.06,14.06-2.2,2.42-4.42,4.8-6.72,7.05-2.33,2.24-4.75,4.35-7.36,6.24-5.2,3.8-11.15,6.55-17.44,8.56,.88-.11,1.75-.25,2.63-.41-.53,.14-1.06,.29-1.6,.41,8-.53,15.69-3.74,22.56-7.83,3.46-2.04,6.78-4.31,9.98-6.69,3.23-2.36,6.36-4.83,9.46-7.3,6.24-4.91,12.33-9.92,18.77-14.43,6.4-4.57,13.16-8.6,20.42-11.89-7.77,1.84-15.12,5.4-21.93,9.61m-53.28-27.07c1.34,2.87,1.65,6.07,1.2,9.16-.88,6.26-4.24,12.02-8.19,17.11-4.06,5.07-8.95,9.5-14.37,13.21-5.42,3.71-11.39,6.66-17.79,8.72,6.67-.86,13.16-3.29,19.05-6.71,2.95-1.71,5.76-3.68,8.37-5.9,2.63-2.2,5.05-4.65,7.22-7.33,2.19-2.66,4.1-5.57,5.6-8.72,1.52-3.13,2.54-6.56,2.82-10.11,.24-3.54-.46-7.26-2.39-10.27-1.9-3.02-4.81-5.17-7.93-6.4,2.75,1.93,5.1,4.35,6.41,7.23m-85.66-20.01v90.36c20.5,.23,41.1,2.71,60.87,8.34,9.22,2.2,18.47,5.06,26.92,8.79,3.59,1.58,6.93,3.25,10.07,4.97h.16c1.91,.11,3.85,.05,5.76-.23,1.89-.32,3.85-.72,5.44-1.88-1.46,1.33-3.43,1.95-5.31,2.46-1.01,.26-2.04,.44-3.06,.59,.98,.14,1.96,.24,2.95,.29,1.92,.1,3.85,.04,5.77-.24,1.89-.31,3.85-.72,5.44-1.88-1.47,1.33-3.43,1.95-5.32,2.46-1.92,.49-3.9,.75-5.88,.85-.55,.03-1.1,.03-1.65,.03,.42,.26,.84,.51,1.25,.77,.49,.09,.97,.18,1.46,.25,1.8,.25,3.62,.38,5.43,.28,1.79-.13,3.69-.34,5.2-1.45-1.38,1.28-3.31,1.72-5.13,2.05-1.55,.26-3.12,.32-4.69,.31,1.25,.81,2.46,1.64,3.64,2.47,6.2,2.96,12.31,6.06,18.49,8.86,3.82,1.72,7.69,3.27,11.67,4.26,3.99,1,8.18,1.16,12.46,.8-4.01,1.46-8.48,2.09-12.87,1.52-4.39-.51-8.55-1.94-12.56-3.48-.35-.14-.69-.3-1.05-.44,.69,.5,1.4,.99,2.09,1.5,.9,.66,1.77,1.33,2.66,2,5.01,2.19,10.31,3.58,15.72,3.87,5.86,.28,11.77-.66,17.38-2.64,5.61-1.99,10.9-4.93,15.93-8.3,5.04-3.38,9.74-7.28,14.32-11.41-3.74,4.9-8.08,9.37-12.92,13.3-4.84,3.92-10.27,7.21-16.18,9.5-5.88,2.31-12.3,3.59-18.71,3.25-2.27-.09-4.53-.39-6.75-.86,5.13,3.98,10.23,7.98,15.41,11.81,1.41,1.05,2.83,2.06,4.28,3.08,52.59-11.55,71.23-116.45,124.53-97.49-57.71-26.65-85.52,64.21-127.52,69.72,25.46-18.03,42.27-52.71,57.37-62.75-19.83,8.19-47.38,53.35-79.32,48.57,7.63-4.32,26.47-11.87,39.08-28.63-16,12.34-36.61,21.8-50.32,25.36,10.1-3.75,15.24-10.88,22.72-16.52-8.56,4.94-18.95,9.49-33.93,9.29-13.74-.18-50.24-17.08-50.24-17.08,0,0,36.79-6.24,46.06-39.86-8.34,13.02-21.05,22.46-25.97,25.11,8.41-7.36,14.13-18,19.73-32.1-7.51,12.47-23.57,24.51-32.48,29.99,6.71-5.66,18.09-18.61,21.61-26.89-16.56,19.93-28.17,26.92-50.94,29.51-6.38,.73-9.95,.47-13.32-.86-5.62-2.22-10.84-9.32-13.79-26.45-.39,6.36-.44,12.42,1.04,17.73-1.87-1.3-3.5-5.34-4.1-9.33l-3.4-41.18-2.07,69-3.45-81.34Z"/></clipPath><clipPath id="clippath-2"><path class="cls-6" d="M535.63,123.56c-6.79,4.28-13.12,9.19-19.26,14.23-4.03,3.26-8.02,6.53-12.11,9.65,1.7-1.64,3.34-3.33,4.92-5.04,4.53-4.82,8.74-9.78,13.5-14.16,4.7-4.46,9.94-8.29,15.62-11.7-6.32,2.01-12.21,5.44-17.41,9.65-5.19,4.24-9.7,9.19-14.06,14.06-2.2,2.42-4.42,4.8-6.72,7.05-2.33,2.24-4.75,4.35-7.36,6.24-5.2,3.8-11.15,6.55-17.44,8.56,.88-.11,1.75-.25,2.63-.41-.53,.14-1.06,.29-1.6,.41,8-.53,15.69-3.74,22.56-7.83,3.46-2.04,6.78-4.31,9.98-6.69,3.23-2.36,6.36-4.83,9.46-7.3,6.24-4.91,12.33-9.92,18.77-14.43,6.4-4.57,13.16-8.6,20.42-11.89-7.77,1.84-15.12,5.4-21.93,9.61m-53.28-27.07c1.34,2.87,1.65,6.07,1.2,9.16-.88,6.26-4.24,12.02-8.19,17.11-4.06,5.07-8.95,9.5-14.37,13.21-5.42,3.71-11.39,6.66-17.79,8.72,6.67-.86,13.16-3.29,19.05-6.71,2.95-1.71,5.76-3.68,8.37-5.9,2.63-2.2,5.05-4.65,7.22-7.33,2.19-2.66,4.1-5.57,5.6-8.72,1.52-3.13,2.54-6.56,2.82-10.11,.24-3.54-.46-7.26-2.39-10.27-1.9-3.02-4.81-5.17-7.93-6.4,2.75,1.93,5.1,4.35,6.41,7.23"/></clipPath><clipPath id="clippath-3"><path class="cls-10" d="M80.94,40.56l59.29,49.01-42.15-42.5,49.45,39.38-33-33.55,40.1,31.24-22.27-22.19,29.47,20.77-14.05-15.08,19.88,14.05-4.11-6.85,15.08,8.57s-28.84,7.36-38.73,14.74l-58.95-57.58Zm-12.48,161.01c-4.95-25.01-22.88-156.38-7.36-162.06,10.57-3.87,70.46,64.9,70.46,64.9,0,0-15.44,10.01-33.17,37.43-3.14,4.85-5.91,10.22-8.42,15.7,6.04-9.96,12.29-18.45,18.82-25.66,5.75-4.68,12.16-8.47,19.16-9.82,6.97-1.41,14.25-.45,20.94,2.16,6.71,2.59,12.92,6.55,18.65,11.09,5.75,4.54,11.04,9.71,16.08,15.15-4.23-6.09-9.17-11.74-14.73-16.75-5.58-4.96-11.86-9.34-18.94-12.2-3.54-1.4-7.27-2.45-11.11-2.85-3.83-.4-7.76-.18-11.49,.8-5.26,1.34-9.97,4.07-13.92,7.57,5.93-5.9,12.08-10.83,18.5-14.92,3.76-1.76,7.54-3.21,11.39-4.15,1.93-.44,3.86-.79,5.8-.99,1.94-.19,3.88-.23,5.8-.16,7.7,.31,15.26,2.69,22.12,6.54,6.87,3.84,13.13,8.91,18.78,14.64,5.69,5.71,10.73,12.11,15.39,18.9-3.12-7.64-7.49-14.79-12.75-21.27-5.32-6.43-11.61-12.22-18.96-16.56-3.68-2.14-7.6-3.96-11.75-5.19-4.14-1.23-8.52-1.81-12.86-1.63-1.41,.06-2.81,.24-4.2,.47,27.35-10.43,59.43-9.98,98.69-6.99,48,3.65,69.24-23.16,138.02-28.59-70.72,0-97.85,13.96-147.71,13.96-87.19,0-130.44-58.48-180.25-58.48-17.06,0-3.46,124.19,9.02,178.99"/></clipPath><clipPath id="clippath-4"><path class="cls-10" d="M251.21,125.84c6.44,4.51,12.53,9.53,18.77,14.43,3.1,2.47,6.23,4.95,9.46,7.3,3.21,2.38,6.52,4.65,9.98,6.69,6.88,4.09,14.57,7.3,22.56,7.83-.54-.12-1.06-.27-1.59-.41,.87,.16,1.75,.3,2.63,.41-6.29-2.01-12.24-4.76-17.44-8.56-2.61-1.88-5.03-4-7.36-6.24-2.31-2.26-4.52-4.63-6.72-7.05-4.36-4.87-8.86-9.82-14.05-14.06-5.2-4.21-11.09-7.63-17.41-9.65,5.68,3.42,10.92,7.24,15.62,11.7,4.77,4.38,8.98,9.34,13.5,14.16,1.58,1.71,3.22,3.41,4.92,5.04-4.08-3.12-8.07-6.4-12.1-9.65-6.14-5.03-12.46-9.95-19.26-14.23-6.81-4.21-14.15-7.78-21.93-9.61,7.26,3.29,14.02,7.32,20.42,11.89m53.26-30.18c-1.93,3.01-2.62,6.73-2.39,10.27,.28,3.55,1.3,6.98,2.82,10.11,1.5,3.15,3.41,6.06,5.6,8.72,2.17,2.67,4.59,5.13,7.22,7.33,2.61,2.22,5.42,4.19,8.37,5.9,5.89,3.42,12.38,5.85,19.05,6.71-6.39-2.05-12.37-5-17.79-8.72-5.42-3.71-10.31-8.14-14.37-13.21-3.95-5.09-7.31-10.86-8.19-17.11-.45-3.1-.14-6.3,1.2-9.16,1.31-2.89,3.67-5.3,6.41-7.23-3.12,1.22-6.04,3.38-7.94,6.4m83.73,62.17l-2.07-69-3.4,41.18c-.6,3.98-2.22,8.03-4.09,9.33,1.48-5.31,1.43-11.37,1.04-17.73-2.95,17.13-8.18,24.23-13.79,26.45-3.37,1.33-6.94,1.58-13.32,.86-22.77-2.59-34.37-9.58-50.94-29.51,3.52,8.28,14.9,21.22,21.61,26.89-8.91-5.48-24.98-17.52-32.48-29.99,5.6,14.09,11.32,24.74,19.73,32.1-4.91-2.65-17.63-12.09-25.97-25.11,9.27,33.62,46.06,39.86,46.06,39.86,0,0-36.5,16.9-50.24,17.08-14.97,.2-25.37-4.35-33.92-9.29,7.48,5.65,12.62,12.77,22.72,16.52-13.71-3.57-34.32-13.02-50.31-25.36,12.61,16.76,31.45,24.3,39.08,28.63-31.95,4.77-59.5-40.38-79.33-48.57,15.1,10.05,31.91,44.72,57.37,62.75-42-5.51-69.81-96.37-127.51-69.72,53.3-18.97,71.94,85.94,124.53,97.49,1.45-1.02,2.87-2.03,4.28-3.08,5.18-3.83,10.28-7.83,15.42-11.81-2.22,.47-4.48,.77-6.76,.86-6.42,.35-12.83-.94-18.71-3.25-5.9-2.29-11.33-5.58-16.17-9.5-4.84-3.93-9.18-8.4-12.92-13.3,4.58,4.12,9.28,8.03,14.32,11.41,5.02,3.37,10.31,6.31,15.93,8.3,5.61,1.98,11.53,2.92,17.39,2.64,5.4-.29,10.71-1.68,15.71-3.87,.89-.67,1.77-1.34,2.66-2,.69-.51,1.4-1,2.09-1.5-.35,.14-.69,.3-1.04,.44-4.01,1.54-8.17,2.97-12.57,3.48-4.39,.57-8.86-.06-12.87-1.52,4.28,.36,8.47,.2,12.46-.8,3.99-.98,7.85-2.54,11.68-4.26,6.18-2.8,12.29-5.9,18.49-8.86,1.18-.83,2.39-1.65,3.64-2.47-1.57,0-3.14-.05-4.7-.31-1.81-.33-3.75-.77-5.12-2.05,1.5,1.11,3.4,1.32,5.19,1.45,1.82,.1,3.64-.03,5.43-.28,.49-.07,.98-.16,1.46-.25,.42-.26,.83-.51,1.26-.77-.55,0-1.1,0-1.65-.03-1.99-.1-3.97-.36-5.89-.85-1.89-.51-3.85-1.14-5.32-2.46,1.58,1.16,3.55,1.57,5.44,1.88,1.91,.28,3.85,.34,5.76,.24,.99-.05,1.97-.15,2.95-.29-1.03-.14-2.05-.33-3.06-.59-1.89-.51-3.85-1.13-5.32-2.46,1.59,1.16,3.55,1.56,5.44,1.88,1.92,.28,3.85,.34,5.77,.24h.16c3.15-1.74,6.49-3.41,10.07-4.99,8.46-3.73,17.7-6.58,26.92-8.79,19.78-5.62,40.38-8.1,60.87-8.34V76.48s-3.44,81.34-3.44,81.34Z"/></clipPath><clipPath id="clippath-5"><path class="cls-6" d="M251.21,125.84c6.44,4.51,12.53,9.53,18.77,14.43,3.1,2.47,6.23,4.95,9.46,7.3,3.21,2.38,6.52,4.65,9.98,6.69,6.88,4.09,14.57,7.3,22.56,7.83-.54-.12-1.06-.27-1.59-.41,.87,.16,1.75,.3,2.63,.41-6.29-2.01-12.24-4.76-17.44-8.56-2.61-1.88-5.03-4-7.36-6.24-2.31-2.26-4.52-4.63-6.72-7.05-4.36-4.87-8.86-9.82-14.05-14.06-5.2-4.21-11.09-7.63-17.41-9.65,5.68,3.42,10.92,7.24,15.62,11.7,4.77,4.38,8.98,9.34,13.5,14.16,1.58,1.71,3.22,3.41,4.92,5.04-4.08-3.12-8.07-6.4-12.1-9.65-6.14-5.03-12.46-9.95-19.26-14.23-6.81-4.21-14.15-7.78-21.93-9.61,7.26,3.29,14.02,7.32,20.42,11.89m53.26-30.18c-1.93,3.01-2.62,6.73-2.39,10.27,.28,3.55,1.3,6.98,2.82,10.11,1.5,3.15,3.41,6.06,5.6,8.72,2.17,2.67,4.59,5.13,7.22,7.33,2.61,2.22,5.42,4.19,8.37,5.9,5.89,3.42,12.38,5.85,19.05,6.71-6.39-2.05-12.37-5-17.79-8.72-5.42-3.71-10.31-8.14-14.37-13.21-3.95-5.09-7.31-10.86-8.19-17.11-.45-3.1-.14-6.3,1.2-9.16,1.31-2.89,3.67-5.3,6.41-7.23-3.12,1.22-6.04,3.38-7.94,6.4"/></clipPath></defs><path class="cls-3" d="M738.27,23.32c-1.52-1.9-3.19-2.3-4.32-2.3-21.83,0-42.04,10.83-65.43,23.36-30.72,16.46-65.55,35.12-114.82,35.12-22.63,0-42.82-3.01-64.18-6.2-25.1-3.74-53.5-7.98-91.28-8.09h0s-1.54,0-1.54,0h-1.55c-37.78,.12-66.18,4.35-91.28,8.09-21.36,3.19-41.54,6.2-64.17,6.2-49.27,0-84.09-18.65-114.82-35.12-23.4-12.54-43.6-23.36-65.43-23.36-1.13,0-2.81,.4-4.32,2.3-12.73,15.95,.41,128.4,11.83,178.59,1.79,7.53,4.72,37.94,7.3,64.76,1.98,20.59,3.85,40.04,5.11,48.45-5.43,25.77-5.38,101.48,19.39,133.14,17.78,22.73,36.23,29.39,296.96,29.43h0c.33,0,.66,0,.99,0s.66,0,.99,0h0c260.73-.03,279.18-6.7,296.96-29.43,24.78-31.67,24.82-107.38,19.39-133.14,1.26-8.41,3.13-27.86,5.11-48.45,2.58-26.82,5.51-57.22,7.3-64.76,11.42-50.19,24.56-162.64,11.83-178.59Z"/><path class="cls-6" d="M706.58,316.27c-.61-6.94-8.49-15.93-1.33-58.18,1.66-9.78,2.27-23.9,1.14-37.28-.46,2.76-.98,5.51-1.67,8.22-1.82,7.12-4.5,14.04-8.37,20.19-3.83,6.17-8.81,11.49-14.46,15.85,5.55-4.51,10.04-10.25,13.08-16.61,1.51-3.19,2.7-6.51,3.59-9.88,.89-3.39,1.44-6.85,1.79-10.31,.31-3.21,.41-6.43,.35-9.66-.88,4.12-2.01,8.18-3.45,12.12-2.49,6.84-6.03,13.27-10.57,18.81-4.52,5.57-10.1,10.09-16.18,13.64,6-3.7,11.13-8.73,14.92-14.55,3.82-5.83,6.22-12.41,7.56-19.11,1.31-6.53,1.61-13.21,1.22-19.82-9.13,39.12-35.12,52.73-56.79,55.15,.49-.02,.98-.02,1.48-.04,7.71-.38,15.42-1.86,22.7-4.7,3.63-1.42,7.12-3.25,10.38-5.45,3.25-2.21,6.24-4.89,8.56-8.17-1.84,3.57-4.5,6.74-7.52,9.47-3.02,2.76-6.46,5.05-10.06,7.02-6.96,3.8-14.66,6.21-22.53,7.53,4.08,.6,8.2,.95,12.34,.92,5.97-.11,12.01-1.02,17.75-3.24-5.24,3.22-11.24,5.36-17.44,6.41-3.18,.57-6.4,.87-9.64,.98,5.18,.95,10.44,1.62,15.72,2.28,5.51,.73,11.1,1.31,16.53,2.75,2.71,.73,5.37,1.66,7.85,2.96,2.47,1.3,4.74,3,6.62,5.05-3.96-3.96-9.26-6.19-14.66-7.19-5.42-1.03-10.96-1.32-16.51-1.54-7.68-.29-15.47-.71-23.22-1.82,.95,.21,1.9,.42,2.85,.6,5.25,.99,10.59,1.63,15.96,2.32,5.36,.72,10.79,1.38,16.02,2.95,2.61,.79,5.16,1.77,7.56,3.05,2.4,1.28,4.62,2.86,6.63,4.65-4.14-3.49-9.18-5.75-14.4-6.88-5.23-1.16-10.6-1.53-15.98-1.74-10.75-.4-21.78-.87-32.58-3.69-10.79-2.75-21.07-7.68-30.38-13.91-1.66-1.12-3.29-2.29-4.9-3.48,3.43,3.71,6.92,7.31,10.71,10.57,3.57,3.08,7.41,5.81,11.48,8.2,4.07,2.39,8.38,4.35,12.82,6.06,4.44,1.68,9.01,3.08,13.64,4.28,4.63,1.19,9.34,2.13,14.06,3.01-4.79-.37-9.57-.99-14.32-1.85-4.75-.84-9.47-1.96-14.08-3.47-9.24-2.94-18.08-7.57-25.61-13.85-2.48-2.02-4.8-4.19-7.04-6.42,2.43,3.89,4.99,7.65,8.13,10.92,3.81,4.01,8.39,7.26,13.27,9.98,4.88,2.74,10.06,4.98,15.34,6.95-5.38-1.65-10.71-3.56-15.83-6.02-5.09-2.47-9.96-5.59-14.13-9.56-4.21-3.94-7.5-8.73-10.6-13.42-3.11-4.7-6.25-9.28-9.9-13.44-.65-.75-1.33-1.48-2.01-2.21-.45-.48-.9-.96-1.35-1.43-2.68-2.79-5.5-5.44-8.46-7.97-4.2-3.67-8.83-6.66-13.51-9.95-9.24-6.56-18.09-13.53-27.25-19.98-9.14-6.47-18.58-12.47-28.48-17.56-5.87-3.02-11.89-5.73-18.04-8.1,.98,.75,1.9,1.57,2.75,2.48,2.22,2.33,3.83,5.16,4.88,8.2,29.96,8.29,43.94,22.57,60.5,39.93-20.51-16.17-29.87-24.5-56.83-33.41-.26,.45-.48,.84-.68,1.22,3.6,1.28,27.47,10.04,37,20.57-12.82-11.39-34.97-17.95-37.96-18.8-.3,.58-.52,1.02-.69,1.37-.31,4.04-1.45,7.98-3.14,11.59-2.27,4.86-5.55,9.14-9.38,12.73,3.2-4.16,5.9-8.64,7.71-13.43,1.84-4.77,2.75-9.87,2.34-14.85-.4-4.99-2.29-9.77-5.43-13.64-1.08-1.34-2.32-2.55-3.67-3.64,1.62,1.61,2.97,3.53,3.95,5.61,2.72,5.61,2.95,12.07,1.84,18-1.14,5.98-3.74,11.62-7.34,16.43-3.6,4.82-8.25,8.78-13.44,11.59,4.73-3.52,8.82-7.79,11.96-12.63,3.16-4.82,5.37-10.23,6.37-15.84,.98-5.59,.68-11.44-1.42-16.65-1.05-2.6-2.62-4.97-4.64-6.96-1.41-1.36-3.05-2.5-4.82-3.44-.81-.26-1.61-.51-2.42-.76,.63,.62,1.22,1.26,1.77,1.92,6.69,8.13,6.34,18.6,3.76,31.81-3.86,19.75-30.72,34.4-65,36.08l-4.2,63.63c1.84,3.71,4.78,5.06,8.98,5.06,52.97,0,93.86,20.47,176.85,15.67,16.08-.93,48.57-7.01,64.27-7.01,45.76,0-3.01,91.93-3.01,91.93,25.18-35.57,67.28-26.07,60.37-105.18m-218.37-97.51c-.48,1.98-1.3,3.87-2.27,5.65-1.95,3.55-4.69,6.73-8.08,8.89,2.73-2.93,4.98-6.13,6.76-9.59,.9-1.73,1.63-3.52,2.31-5.34,.66-1.83,1.22-3.69,1.6-5.67,.36,2,.17,4.08-.32,6.06m130.99,84.5c-8.34-2.62-16.23-6.7-23.39-11.71-7.15-5.05-13.53-11.03-19.4-17.36-5.86-6.36-11.29-13.05-16.62-19.81,6.12,6.06,12.09,12.27,18.27,18.19,6.17,5.93,12.6,11.55,19.62,16.27,6.99,4.78,14.61,8.51,22.54,11.46,7.94,2.96,16.22,5.07,24.63,7.09-8.65-.11-17.32-1.49-25.65-4.12"/><path class="cls-13" d="M437.07,175.76c14.88,3.99,23.31,14.07,23.31,27.45,0,18.05-12.21,27.19-25.4,27.19-9.46,0-23.8-6.37-23.8-23.75,0-7.02,5.69-12.71,12.71-12.71s12.71,5.69,12.71,12.71c0,10.04,15.79,6.64,15.79-5.72,0-6.02-1.98-21.71-20.35-25.97-9.27-1.3-20.87-1.96-35.34-1.96h-.01c-14.47,0-26.07,.66-35.34,1.96-18.37,4.26-20.35,19.96-20.35,25.97,0,12.37,15.79,15.76,15.79,5.72,0-7.02,5.69-12.71,12.71-12.71s12.71,5.69,12.71,12.71c0,17.37-14.34,23.75-23.8,23.75-13.2,0-25.4-9.14-25.4-27.19,0-13.38,8.42-23.47,23.31-27.45-29.83,5.46-31.24,18.93-27.22,39.53,3.27,16.73,27,31.03,60.71,32.75l6.87-59.86h.01l6.88,59.86c33.7-1.73,57.43-16.02,60.71-32.75,4.03-20.6,2.61-34.07-27.22-39.53"/><path class="cls-15" d="M392.26,176.54c1.43-.04,2.91-.06,4.43-.06v.03s0-.03,0-.03c-1.52,0-2.99,.02-4.43,.06m-36.85,14.33h0c5.06-4.02,10.04-5.79,14.42-5.79-4.38,0-9.36,1.77-14.42,5.79m82.56,0s0,0,0,0c-1.12-8.22-14.95-14.39-41.28-14.39,26.33,0,40.15,6.17,41.28,14.39m-26.72,1.02c2.63-4.25,7.03-6.81,12.3-6.81h0c-5.27,0-9.67,2.56-12.3,6.81m-.02,.04s.01-.02,.02-.03c0,.01-.01,.02-.02,.03m-.09,.04c-2.99-4.5-8.58-8.2-14.45-8.2,6.86,0,11.46,3.7,14.45,8.2m-28.95,.02s-.03-.05-.04-.07c.01,.02,.03,.05,.04,.07m.02,.03s.02-.03,.03-.05c-.01,.02-.02,.03-.03,.05m28.96,0s.02-.04,.04-.06c-.01,.02-.03,.04-.04,.06"/><path class="cls-7" d="M598.61,255.88c.82,.64,1.66,1.26,2.51,1.88,8.69,3.02,17.84,4.77,27.86,4.77,1.25,0,2.53-.03,3.8-.08,10.73-.47,41.04-5.12,54.93-40.96,.08-1.29,.14-2.59,.14-3.9,0-29.39-21-53.96-48.78-59.52-6.52,10.68-12.38,20.12-17.72,28.46,1.95-.38,3.97-.59,6.03-.59,17.48,0,31.65,14.17,31.65,31.65s-14.17,31.65-31.65,31.65c-15.76,0-28.8-11.54-31.21-26.63-5.82,7.23-10.88,12.42-15.62,16.07,5.5,6.29,11.45,12.12,18.06,17.19"/><path class="cls-12" d="M629.82,173.1c-2.98,4.79-5.79,9.23-8.48,13.44,1.96-.38,3.97-.59,6.04-.59,17.48,0,31.65,14.17,31.65,31.65s-14.17,31.65-31.65,31.65c-15.77,0-28.81-11.54-31.22-26.63-3.74,4.64-7.17,8.46-10.39,11.55,6.59,16.4,22.65,28.01,41.37,28.01,24.59,0,44.58-20,44.58-44.58s-18.56-43.1-41.9-44.5"/><path class="cls-7" d="M640.89,206.65c0,4.41-3.57,7.99-7.99,7.99s-7.99-3.58-7.99-7.99,3.58-7.99,7.99-7.99,7.99,3.57,7.99,7.99"/><path class="cls-7" d="M618.64,223.14c0,2.45-1.99,4.43-4.44,4.43s-4.44-1.98-4.44-4.43,1.99-4.43,4.44-4.43,4.44,1.99,4.44,4.43"/><path class="cls-7" d="M621.31,232.59c0,1.41-1.15,2.56-2.56,2.56s-2.56-1.15-2.56-2.56,1.14-2.56,2.56-2.56,2.56,1.14,2.56,2.56"/><path class="cls-5" d="M684.76,217.59c0-28.29-20.5-51.86-47.41-56.7-1.87,3.06-3.69,6.01-5.45,8.86,24.28,2.4,43.32,22.93,43.32,47.83,0,4.3-.58,8.47-1.64,12.44,0,0,1.23-1.65,2.73-5.59,0,0-.21,3.45-.11,5.31,.65-1.68,2.3-5.68,2.59-11.82,.1,3.59,.02,6.85-.02,10.96,1.45-3.94,1.87-10.6,1.87-10.6,0,0,.88,5.57,.48,12.4,1.76-7.71,1.96-15.32,1.96-15.32,1.2,6.34,.32,14.66,.32,14.66,.89-4.01,1.37-8.17,1.37-12.44"/><path class="cls-4" d="M599.19,248.14c-2.18-1.99-4.19-4.23-5.95-6.75-2.15-3.05-3.82-6.3-5.05-9.65,1.73-1.79,3.51-3.77,5.38-5.97,1,4.08,2.72,8.04,5.28,11.67,1.78,2.53,3.84,4.74,6.11,6.63,0,0-1.4-.46-3.92-2.15,0,0,1.56,1.94,2.27,3.07-1.08-.71-3.7-2.38-6.42-5.87,1.42,2.15,2.82,4.04,4.55,6.43-2.49-1.71-5.5-5.45-5.5-5.45,0,0,1.8,3.64,4.86,7.48-4.22-3.81-7.5-8.2-7.5-8.2,1.92,4.23,5.88,8.75,5.88,8.75"/><path class="cls-4" d="M659.54,205.62c-1.02-2.77-2.4-5.46-4.19-7.99-6.72-9.54-17.43-14.62-28.29-14.62-1.19,0-2.39,.06-3.58,.19,1.44-2.28,2.92-4.62,4.44-7.05,12.72,.27,25.16,6.36,33.04,17.53,1.77,2.51,3.2,5.15,4.35,7.88,0,0-2.93-5.25-6.26-8.48,0,0,3.03,4.56,5.2,9.82-2.59-4.18-5.42-7.09-5.42-7.09,0,0,2.51,4.09,3.29,7.01-1.68-2.43-2.98-4.38-4.53-6.45,2.38,3.73,3.06,6.76,3.37,8.02-.82-1.05-2.13-3.17-2.13-3.17,.75,2.94,.71,4.41,.71,4.41"/><path class="cls-9" d="M563.44,374.8c4.08,25.41-9.79,76.93-12.95,77.49-5.45,.95-7.19-20.11-13.67-42.1-5.01-16.99-11.31-40.1-8.81-46.01,4.17-9.9,29.3-27.63,35.43,10.63"/><path class="cls-9" d="M598.89,364.59c2.09,10.97-6.33,30.29-8.66,31.07-2.91,.96-5.09-3.31-10.09-12.61-4.48-8.33-12.82-12.91-8.01-18.69,3.99-4.8,20.45-32.91,26.77,.24"/><path class="cls-9" d="M626.76,342.64c5.92,6.64,2.89,19.44,.02,22.44-2.65,2.75-7.97,2.03-13.72-4.12-5.16-5.52-10.11-11.06-6.77-16.36,2.77-4.4,17.54-5.24,20.47-1.95"/><path class="cls-7" d="M536.82,397.19c-1.9-10.41-11.03-31.35-1.9-30.58,1.91,.16,15.72-6.23,20.23,0,.97,1.34,5.45,9.61,6.94,12.76,.69,1.46,.25,16.78-.02,18.43-.76,4.63-1.39,12.58-2.54,17.21-.97,3.89-4.89,17.17-7.63,24.44-5.89-5.81-3.37-26.7-4.09-34.3-1.86,5.39-.94,12.85-3.17,18.03-2.92-5.41-.74-12.12-3.62-17.79-1.44-2.84-3.77-5.4-4.2-8.56"/><path class="cls-9" d="M515.33,356.05c6.94,12.87-4.72,53.23-6.98,53.61-3.87,.66-8.47-4.45-13.3-22.87-3.12-11.87-10.22-21.77-5.97-29.59,3.52-6.48,19.34-13.96,26.24-1.14"/><path class="cls-7" d="M498.18,369.16c2.89,0,5.89-.28,8.77,0,1.35,.13,2.49,.62,3.86,.36,1.16-.22,2.34-2.63,3.4-.1,.49,1.18,2.11-1.09,1.92,.23-.54,3.72-.99,10.1-1.81,13.82-.69,3.13-3.48,13.79-5.42,19.63-4.19-4.67-3.06-11.12-3.57-17.22-1.32,4.33,0,0-1.59,4.16-2.08-4.35-.53-9.74-2.57-14.29-1.03-2.28-2.68-4.34-2.98-6.87"/><path class="cls-7" d="M580.1,367.07c.02,4.86,1.92,25.88,9.57,26.05,6.71,.15,8.05-26.51,5.82-33.67-6.62-1.3-14.05,4.68-15.39,11.04"/><path class="cls-7" d="M613.06,358.41c2.5,2.12,6.61,7.43,10.36,6.1,2.99-1.06,5.79-9.28,5.77-11.75-4.27-.69-13.63,2.33-15.18,6.6"/><path class="cls-9" d="M435.65,372.22c0,7.07-9.27,18.55-15.02,18.55s-15.02-8.93-15.02-18.55c0-6.53,6.72-27.38,15.02-27.38s15.02,20.38,15.02,27.38"/><path class="cls-7" d="M413.4,365.98c4.69,1.77,11.77-2.22,16.29,1.03,1.5,1.08,1.88,2.59,1.99,4.22,.28,4.33-1.65,10.59-3.91,14.14,.04-5.82-.67-9.08-1.52-18.62-1.02,.92-.52,3.65-.52,5.03,0,4.95-.37,9.85-.72,14.74-2.02,1.65-3.64-2.83-4.73-4.1-1.89-2.2-3.89-3.41-5.05-6.13-1.27-2.97-3.17-6.84-1.83-9.84"/><path class="cls-9" d="M476.95,378.17c0,6.49-10.29,12.6-14.82,12.6s-14.82-7.48-14.82-12.6c0-10.15,6.64-33.26,14.82-33.26s14.82,23.11,14.82,33.26"/><path class="cls-7" d="M455.08,365.98c4.7,1.77,11.77-2.22,16.29,1.03,1.5,1.08,1.88,2.59,1.99,4.22,.28,4.33-1.65,10.59-3.91,14.14,.04-5.82-.67-9.08-1.52-18.62-1.03,.92-.52,3.65-.52,5.03,0,4.95-.37,9.85-.72,14.74-2.02,1.65-7.43,.64-8.52-.63-1.89-2.2-2.49-6.63-3.65-9.35-1.27-2.96-.78-7.08,.55-10.09"/><path class="cls-14" d="M720.18,223.17c-7.21,33.97-10.79,62.66-13.14,88.01-.68,7.31,3.44,5.77,3.44,5.77l9.7-93.78"/><path class="cls-2" d="M457.77,238.63c.81-.6,1.61-1.23,2.38-1.88,.17,.05,.34,.1,.52,.16-.94,.61-1.91,1.19-2.9,1.72m-53.63,13.49c.22-.3,.45-.52,.68-.64,25.43-3.34,46.16-17.12,46.16-17.12,1.5,.33,2.99,.69,4.49,1.08-11.66,9.31-30.03,15.51-51.33,16.68m-4.68,58.55h0s2.31-35.07,2.31-35.07l-2.31,35.07m30.25,16.56l-17.44-6.34c2.33,.05,4.65,.13,6.94,.25l10.49,6.09m-3.97,5.43l-26.3-11.75v-4.51c1.71,2.98,4.24,4.23,7.7,4.42l18.6,11.84"/><path class="cls-2" d="M399.44,320.92l-.64-.29,.66-9.96h0s-.34,5.12-.34,5.12c.11,.21,.22,.42,.33,.62v4.51"/><path class="cls-10" d="M433.96,322.26l-28.47-9.08,13.73,7.97c-2.29-.12-4.61-.21-6.94-.25l-11.72-4.26,6.58,4.19c-3.46-.19-5.99-1.44-7.69-4.42-.12-.2-.22-.41-.33-.62l.34-5.11,2.31-35.07,1.43-21.64c.3-.78,.61-1.4,.94-1.84,21.31-1.18,39.68-7.38,51.33-16.69,1.56,.4,3.12,.84,4.68,1.31-.77,.65-1.57,1.28-2.38,1.88,.98-.53,1.95-1.11,2.9-1.72,44.89,13.66,87.06,51.51,87.06,51.51,0,0-50.75-35.65-89.76-43.18,0,0,44.48,18.71,74.77,43.2-46.81-25.08-77.16-35.27-77.16-35.27l64.11,36.17-66.43-29.12,53.06,30.05-56.18-23.2,44,26.45-46.11-18.59,35.24,20.99-35.76-12.39,26.34,14.68-30.59-9.28,20.92,12.69-26.05-7.91,19.49,11.67-24.87-7.62,17.42,10.6-25.61-6.33,19.42,10.45-26.19-6.3,20.95,11.58-28.39-8.03,23.61,12.53"/><path class="cls-2" d="M424.02,292.26c1.71,3.47,9.09,2.07,13.96,2.37-6.62-2.05-8.11-5.52-10.96-6-2.21-.37-3.58,2.44-3,3.62"/><path class="cls-2" d="M469.8,308.15c1.71,3.47,9.09,2.07,13.96,2.37-6.63-2.05-8.11-5.52-10.96-6-2.21-.37-3.59,2.44-3,3.63"/><path class="cls-2" d="M452.41,286.91c.79,3.79,8.29,4.28,12.92,5.78-5.9-3.64-6.47-7.37-9.11-8.54-2.04-.91-4.08,1.47-3.81,2.76"/><path class="cls-2" d="M465.37,267.2c.79,3.79,8.29,4.28,12.92,5.78-5.9-3.64-6.48-7.37-9.11-8.54-2.04-.91-4.08,1.47-3.81,2.76"/><path class="cls-2" d="M443.13,310.49c.79,3.79,8.29,4.28,12.92,5.78-5.9-3.64-6.48-7.37-9.12-8.54-2.04-.91-4.07,1.47-3.8,2.76"/><path class="cls-2" d="M434.43,268.65c1.45,3.59,8.92,2.73,13.75,3.38-6.46-2.53-7.69-6.09-10.49-6.78-2.17-.53-3.75,2.17-3.26,3.4"/><path class="cls-2" d="M481.61,287.4c1.45,3.59,8.91,2.73,13.75,3.38-6.46-2.53-7.69-6.09-10.5-6.78-2.17-.53-3.75,2.17-3.25,3.4"/><g><path class="cls-10" d="M712.45,40.56l-58.95,57.58c-9.89-7.38-38.73-14.74-38.73-14.74l15.08-8.57-4.11,6.85,19.88-14.05-14.05,15.08,29.47-20.77-22.27,22.19,40.1-31.24-33,33.55,49.45-39.38-42.16,42.5,59.29-49.01Zm-158.75,40.49c-49.85,0-76.99-13.96-147.71-13.96,68.78,5.42,90.02,32.24,138.01,28.59,39.27-2.99,71.35-3.44,98.69,6.99-1.39-.23-2.79-.41-4.2-.47-4.34-.18-8.71,.4-12.85,1.63-4.15,1.23-8.07,3.05-11.75,5.19-7.35,4.34-13.64,10.13-18.96,16.56-5.27,6.48-9.64,13.64-12.76,21.27,4.67-6.78,9.71-13.19,15.4-18.9,5.64-5.73,11.9-10.8,18.77-14.64,6.86-3.85,14.42-6.22,22.12-6.54,1.93-.07,3.86-.02,5.8,.16,1.94,.21,3.87,.55,5.8,.99,3.85,.94,7.63,2.39,11.39,4.15,6.42,4.09,12.58,9.02,18.5,14.92-3.94-3.5-8.65-6.23-13.92-7.57-3.73-.98-7.66-1.2-11.5-.8-3.84,.4-7.56,1.45-11.1,2.85-7.08,2.86-13.35,7.24-18.94,12.2-5.56,5.02-10.49,10.66-14.73,16.75,5.04-5.44,10.33-10.61,16.08-15.15,5.73-4.54,11.94-8.5,18.65-11.09,6.69-2.6,13.96-3.57,20.94-2.16,7.01,1.36,13.41,5.14,19.17,9.82,6.53,7.22,12.78,15.71,18.82,25.66-2.51-5.48-5.28-10.85-8.42-15.7-17.73-27.42-33.17-37.43-33.17-37.43,0,0,59.89-68.76,70.46-64.9,15.52,5.68-2.41,137.05-7.36,162.06,12.48-54.8,26.08-178.99,9.02-178.99-49.8,0-93.06,58.48-180.25,58.48"/><g class="cls-1"><rect class="cls-10" x="405.99" y="22.57" width="345.02" height="178.99"/></g></g><g><path class="cls-2" d="M595.97,333.25c3.79-.85,7.58-1.6,11.38-2.36,3.8-.78,7.6-1.51,11.41-2.2,7.63-1.38,15.28-2.67,23.02-3.56,3.87-.46,7.77-.79,11.74-.82,1.98-.01,3.98,.06,6.01,.3,2.02,.23,4.07,.68,6.05,1.52,1.98,.81,3.85,2.11,5.24,3.78,1.43,1.64,2.36,3.56,3.04,5.47,1.31,3.85,1.79,7.74,1.96,11.66-1.41-3.65-2.57-7.37-4.26-10.68-.83-1.64-1.83-3.15-3.02-4.37-1.21-1.2-2.64-2.1-4.24-2.75-3.24-1.23-7.02-1.56-10.78-1.57-3.77,0-7.6,.28-11.43,.59-7.66,.7-15.33,1.65-23.02,2.54-3.84,.46-7.69,.9-11.54,1.29-3.85,.41-7.7,.84-11.57,1.16m-78.86,5.37c6.37,.33,12.76,.31,19.13-.01,12.76-.6,25.46-2.29,37.98-4.63,6.27-1.13,12.51-2.4,18.73-3.66,6.22-1.27,12.46-2.43,18.68-3.61,12.45-2.32,24.92-4.22,37.58-5.86-12.76-.78-25.58,.45-38.16,2.55-6.3,1.02-12.53,2.36-18.76,3.63l-18.65,3.86c-12.43,2.46-24.91,4.63-37.53,5.66-6.3,.5-12.63,.78-18.97,.87-6.34,.06-12.69-.19-19.04-.57,6.3,.9,12.65,1.48,19.01,1.78m-29.49-8.92c9.11,1.04,18.25,1.98,27.46,2.3,9.21,.37,18.5-.11,27.6-1.41,9.12-1.27,18.11-3.08,27.06-5.14-9.15,.82-18.25,1.94-27.33,2.84-9.08,.9-18.14,1.35-27.25,1.09-9.11-.26-18.23-.93-27.36-1.6-9.14-.66-18.28-1.31-27.43-1.8,9.07,1.39,18.14,2.63,27.25,3.71"/><path class="cls-2" d="M691.46,382.46c1.94-10.24,.43-26.27-.93-34.33-1.33-8.04-3.63-15.94-7.44-23.13-1.9-3.6-4.18-6.99-6.89-10.05-2.74-3.03-5.9-5.71-9.43-7.86-3.53-2.17-7.45-3.71-11.53-4.63-2.04-.47-4.14-.74-6.24-.8-2.1-.05-4.24,.02-6.27,.64,4.06-1.3,8.43-1.17,12.65-.67,4.25,.56,8.4,1.85,12.35,3.67,7.88,3.68,14.59,9.85,19.67,17.04,5.1,7.23,8.68,15.42,11.37,23.8,2.63,8.39,4.44,17.07,5.64,25.7l-12.96,10.64"/><path class="cls-2" d="M709.24,344.11c-.25-6.29-.63-12.54-1.44-18.73-.76-6.2-1.88-12.34-3.61-18.29-.87-2.97-1.89-5.9-3.16-8.72-1.3-2.8-2.85-5.49-4.73-7.95-1.86-2.49-4.16-4.64-6.65-6.58-2.48-1.96-5.22-3.63-7.76-5.54,2.67,1.73,5.5,3.17,8.24,4.84,2.75,1.65,5.34,3.64,7.69,5.92,2.35,2.28,4.41,4.88,6.21,7.63,1.84,2.72,3.44,5.61,4.88,8.56,2.87,5.91,5.12,12.07,7.16,18.26,1.99,6.21-.07,12.07,1.53,18.35l-8.38,2.26"/><path class="cls-2" d="M424.88,173.95c-1-.06-2.02-.1-3.09-.1,1.06,0,2.07,.05,3.09,.1"/><path class="cls-2" d="M368.52,173.95c1.02-.05,2.03-.1,3.09-.1-1.07,0-2.09,.04-3.09,.1"/></g><g><path class="cls-10" d="M535.63,123.56c-6.79,4.28-13.12,9.19-19.26,14.23-4.03,3.26-8.02,6.53-12.11,9.65,1.7-1.64,3.34-3.33,4.92-5.04,4.53-4.82,8.74-9.78,13.5-14.16,4.7-4.46,9.94-8.29,15.62-11.7-6.32,2.01-12.21,5.44-17.41,9.65-5.19,4.24-9.7,9.19-14.06,14.06-2.2,2.42-4.42,4.8-6.72,7.05-2.33,2.24-4.75,4.35-7.36,6.24-5.2,3.8-11.15,6.55-17.44,8.56,.88-.11,1.75-.25,2.63-.41-.53,.14-1.06,.29-1.6,.41,8-.53,15.69-3.74,22.56-7.83,3.46-2.04,6.78-4.31,9.98-6.69,3.23-2.36,6.36-4.83,9.46-7.3,6.24-4.91,12.33-9.92,18.77-14.43,6.4-4.57,13.16-8.6,20.42-11.89-7.77,1.84-15.12,5.4-21.93,9.61m-53.28-27.07c1.34,2.87,1.65,6.07,1.2,9.16-.88,6.26-4.24,12.02-8.19,17.11-4.06,5.07-8.95,9.5-14.37,13.21-5.42,3.71-11.39,6.66-17.79,8.72,6.67-.86,13.16-3.29,19.05-6.71,2.95-1.71,5.76-3.68,8.37-5.9,2.63-2.2,5.05-4.65,7.22-7.33,2.19-2.66,4.1-5.57,5.6-8.72,1.52-3.13,2.54-6.56,2.82-10.11,.24-3.54-.46-7.26-2.39-10.27-1.9-3.02-4.81-5.17-7.93-6.4,2.75,1.93,5.1,4.35,6.41,7.23m-85.66-20.01v90.36c20.5,.23,41.1,2.71,60.87,8.34,9.22,2.2,18.47,5.06,26.92,8.79,3.59,1.58,6.93,3.25,10.07,4.97h.16c1.91,.11,3.85,.05,5.76-.23,1.89-.32,3.85-.72,5.44-1.88-1.46,1.33-3.43,1.95-5.31,2.46-1.01,.26-2.04,.44-3.06,.59,.98,.14,1.96,.24,2.95,.29,1.92,.1,3.85,.04,5.77-.24,1.89-.31,3.85-.72,5.44-1.88-1.47,1.33-3.43,1.95-5.32,2.46-1.92,.49-3.9,.75-5.88,.85-.55,.03-1.1,.03-1.65,.03,.42,.26,.84,.51,1.25,.77,.49,.09,.97,.18,1.46,.25,1.8,.25,3.62,.38,5.43,.28,1.79-.13,3.69-.34,5.2-1.45-1.38,1.28-3.31,1.72-5.13,2.05-1.55,.26-3.12,.32-4.69,.31,1.25,.81,2.46,1.64,3.64,2.47,6.2,2.96,12.31,6.06,18.49,8.86,3.82,1.72,7.69,3.27,11.67,4.26,3.99,1,8.18,1.16,12.46,.8-4.01,1.46-8.48,2.09-12.87,1.52-4.39-.51-8.55-1.94-12.56-3.48-.35-.14-.69-.3-1.05-.44,.69,.5,1.4,.99,2.09,1.5,.9,.66,1.77,1.33,2.66,2,5.01,2.19,10.31,3.58,15.72,3.87,5.86,.28,11.77-.66,17.38-2.64,5.61-1.99,10.9-4.93,15.93-8.3,5.04-3.38,9.74-7.28,14.32-11.41-3.74,4.9-8.08,9.37-12.92,13.3-4.84,3.92-10.27,7.21-16.18,9.5-5.88,2.31-12.3,3.59-18.71,3.25-2.27-.09-4.53-.39-6.75-.86,5.13,3.98,10.23,7.98,15.41,11.81,1.41,1.05,2.83,2.06,4.28,3.08,52.59-11.55,71.23-116.45,124.53-97.49-57.71-26.65-85.52,64.21-127.52,69.72,25.46-18.03,42.27-52.71,57.37-62.75-19.83,8.19-47.38,53.35-79.32,48.57,7.63-4.32,26.47-11.87,39.08-28.63-16,12.34-36.61,21.8-50.32,25.36,10.1-3.75,15.24-10.88,22.72-16.52-8.56,4.94-18.95,9.49-33.93,9.29-13.74-.18-50.24-17.08-50.24-17.08,0,0,36.79-6.24,46.06-39.86-8.34,13.02-21.05,22.46-25.97,25.11,8.41-7.36,14.13-18,19.73-32.1-7.51,12.47-23.57,24.51-32.48,29.99,6.71-5.66,18.09-18.61,21.61-26.89-16.56,19.93-28.17,26.92-50.94,29.51-6.38,.73-9.95,.47-13.32-.86-5.62-2.22-10.84-9.32-13.79-26.45-.39,6.36-.44,12.42,1.04,17.73-1.87-1.3-3.5-5.34-4.1-9.33l-3.4-41.18-2.07,69-3.45-81.34Z"/><g class="cls-16"><rect class="cls-10" x="396.69" y="76.48" width="283.22" height="156.18"/></g></g><g><path class="cls-6" d="M535.63,123.56c-6.79,4.28-13.12,9.19-19.26,14.23-4.03,3.26-8.02,6.53-12.11,9.65,1.7-1.64,3.34-3.33,4.92-5.04,4.53-4.82,8.74-9.78,13.5-14.16,4.7-4.46,9.94-8.29,15.62-11.7-6.32,2.01-12.21,5.44-17.41,9.65-5.19,4.24-9.7,9.19-14.06,14.06-2.2,2.42-4.42,4.8-6.72,7.05-2.33,2.24-4.75,4.35-7.36,6.24-5.2,3.8-11.15,6.55-17.44,8.56,.88-.11,1.75-.25,2.63-.41-.53,.14-1.06,.29-1.6,.41,8-.53,15.69-3.74,22.56-7.83,3.46-2.04,6.78-4.31,9.98-6.69,3.23-2.36,6.36-4.83,9.46-7.3,6.24-4.91,12.33-9.92,18.77-14.43,6.4-4.57,13.16-8.6,20.42-11.89-7.77,1.84-15.12,5.4-21.93,9.61m-53.28-27.07c1.34,2.87,1.65,6.07,1.2,9.16-.88,6.26-4.24,12.02-8.19,17.11-4.06,5.07-8.95,9.5-14.37,13.21-5.42,3.71-11.39,6.66-17.79,8.72,6.67-.86,13.16-3.29,19.05-6.71,2.95-1.71,5.76-3.68,8.37-5.9,2.63-2.2,5.05-4.65,7.22-7.33,2.19-2.66,4.1-5.57,5.6-8.72,1.52-3.13,2.54-6.56,2.82-10.11,.24-3.54-.46-7.26-2.39-10.27-1.9-3.02-4.81-5.17-7.93-6.4,2.75,1.93,5.1,4.35,6.41,7.23"/><g class="cls-19"><rect class="cls-6" x="396.69" y="76.48" width="283.22" height="156.18"/></g></g><path class="cls-2" d="M648.58,436.91c-1.06,0-2.1-.06-3.1-.19-3.98-14.25,.88-26.52,8.36-37.51,7.04-10.35-.19-20.68,8.84-28.15,1.27-1.05,2.57-1.77,3.95-2.43-5.67,25.02-20.41,52.82-20.41,52.82,13.64-19.27,32.24-25.31,45.33-39.37-.02,.13-.05,.25-.07,.38l12.96-10.64c-.41-2.95-.89-5.9-1.45-8.84,3.7-10.65,5.33-24.8,3.77-44.7,.41,2.35,.76,4.72,1.05,7.1,.81,6.2,1.19,12.44,1.44,18.73l5.93-1.6c.29,8.7,.21,18.47-.42,28.59-.7,10.89-2.03,22.14-4.16,32.82-1.44,7.23-3.26,14.2-5.49,20.63-7.96,2.2-16.58,3.53-25.29,5.22-9.11,1.76-21.25,7.14-31.23,7.13"/><path class="cls-2" d="M705.1,424.56c2.23-6.43,4.05-13.4,5.49-20.63,2.14-10.69,3.46-21.93,4.16-32.82-1.12,18.14-3.98,37.36-9.59,53.44-.02,0-.04,.01-.07,.02"/><path class="cls-10" d="M702.97,362.98c-1.08-5.68-2.46-11.33-4.19-16.86-2.69-8.37-6.28-16.56-11.37-23.8-.58-.82-1.18-1.62-1.8-2.42,6.55-3.01,10.12-6.91,9.44-15.42-.51-6.44-1.65-16.51-8.51-22.93,1.06,.73,2.1,1.48,3.11,2.28,2.49,1.94,4.79,4.09,6.65,6.58,1.88,2.46,3.43,5.15,4.73,7.95,1.27,2.82,2.29,5.75,3.16,8.72,1.06,3.67,1.9,7.41,2.56,11.19,1.56,19.9-.07,34.05-3.77,44.7m-56.77,58.48s14.74-27.8,20.41-52.82c4.67-2.25,10.16-3.91,17.78-15.97,1.98-3.13,3.57-9.07,4.03-14.11,.88,3.15,1.57,6.36,2.11,9.58,1.35,7.96,2.83,23.7,1,33.95-13.09,14.06-31.69,20.11-45.33,39.37"/><path class="cls-2" d="M691.46,382.46c.02-.13,.05-.25,.07-.38,1.83-10.25,.35-25.99-1-33.95-.53-3.23-1.22-6.44-2.11-9.58,.17-1.87,.19-3.62,0-5.06-.57-4.55-1.7-9.62-5.04-12.63,.77-.31,1.51-.62,2.21-.94,.62,.79,1.22,1.6,1.8,2.42,5.1,7.23,8.68,15.42,11.37,23.8,1.73,5.53,3.11,11.18,4.19,16.86,.56,2.94,1.04,5.9,1.45,8.84l-12.96,10.64"/><path class="cls-2" d="M712.64,313.84c-.47-1.22-.96-2.42-1.47-3.63l9.01-87.05c-6.45,30.41-9.99,56.58-12.35,79.91-1.15-2.19-2.4-4.34-3.79-6.39-.52-.78-1.05-1.56-1.61-2.31-.48-8.22,.01-19.69,2.83-36.29,1.66-9.78,2.27-23.9,1.14-37.28-.46,2.76-.98,5.51-1.67,8.22-1.82,7.12-4.5,14.04-8.37,20.19-.45,.72-.91,1.44-1.4,2.14,.12-.68,.27-1.39,.47-2.11,.38-1.39,.69-2.71,.93-3.96,.87-2.2,1.61-4.44,2.21-6.71,.89-3.39,1.44-6.85,1.79-10.31,.31-3.21,.41-6.44,.35-9.66-.88,4.12-2.01,8.18-3.45,12.12-.17,.46-.34,.91-.51,1.37-.52-4.06-1.5-8.22-2.45-13.4,.14-3,.1-6.01-.07-9.01-.27,1.16-.55,2.29-.85,3.4-.66-4.48-1.2-9.73-1.42-16.13l-4.88-3.54c11.57,4.71,13.87,5.19,20.07,7.54,5.5,2.08,10.98,4.75,16.74,6.68-.08,.51-.15,1.04-.23,1.6-3.31,23.93-8.37,85.99-10.99,104.6"/><path class="cls-2" d="M723.63,209.24c.08-.55,.15-1.08,.23-1.6h0c-.07,.51-.15,1.04-.23,1.6"/><path class="cls-10" d="M694.27,218.69c-.32-1.74-.63-3.6-.93-5.61,.3-1.11,.58-2.25,.85-3.41,.18,3,.21,6.01,.07,9.01m2.08,26.59c.96-4.97,.9-9.03,.37-13.19,.18-.46,.35-.91,.51-1.37,1.45-3.94,2.57-8,3.45-12.12,.06,3.22-.03,6.45-.35,9.66-.35,3.47-.9,6.92-1.78,10.31-.6,2.27-1.34,4.51-2.21,6.71m6.07,49.09c-1.39-1.89-2.92-3.68-4.6-5.31-2.35-2.27-4.94-4.27-7.69-5.92-1.85-1.12-3.73-2.14-5.58-3.22-.82-.59-1.7-1.13-2.66-1.62,19.18-9.56,11.09-15.5,13.06-26.95,.48-.7,.94-1.41,1.4-2.14,3.87-6.15,6.55-13.07,8.37-20.19,.69-2.71,1.21-5.46,1.67-8.22,1.13,13.39,.52,27.5-1.14,37.28-2.81,16.59-3.3,28.06-2.83,36.28"/><path class="cls-10" d="M711.17,310.22c-.71-1.67-1.46-3.33-2.25-4.97-.35-.73-.72-1.45-1.1-2.17,2.36-23.33,5.9-49.5,12.35-79.91l-9.01,87.05"/><path class="cls-2" d="M681.89,278.3h0m27.35,65.81c-.25-6.29-.63-12.54-1.44-18.73-.29-2.38-.64-4.75-1.05-7.1-.66-3.78-1.5-7.52-2.56-11.19-.87-2.97-1.89-5.9-3.16-8.72-1.3-2.8-2.85-5.49-4.73-7.95-1.86-2.49-4.16-4.64-6.65-6.58-1.01-.79-2.05-1.54-3.11-2.27-.62-.58-1.28-1.13-1.99-1.64,1.85,1.08,3.74,2.09,5.58,3.22,2.75,1.65,5.34,3.64,7.69,5.92,1.68,1.63,3.21,3.42,4.6,5.31,.56,.75,1.1,1.53,1.61,2.31,1.38,2.05,2.64,4.2,3.78,6.39,.38,.72,.74,1.44,1.1,2.16,.79,1.64,1.54,3.3,2.25,4.97,.51,1.2,1,2.41,1.47,3.63-.07,.47-.13,.91-.2,1.32,1.29,6,2.34,15.71,2.73,27.35l-5.93,1.6"/><polygon class="cls-2" points="403.59 248.1 396.7 188.18 396.69 188.18 389.8 248.1 396.69 352.49 396.7 352.49 403.59 248.1"/><path class="cls-11" d="M566.44,283.95c-5.44-4.96-10.93-9.72-16.6-14.29-4.07-3.3-8.24-6.48-12.44-9.61,.83,.79,1.63,1.61,2.39,2.45,1.31,1.46,2.54,2.97,3.71,4.52,.53,.54,1.05,1.07,1.56,1.62,2.66,2.97,5.02,6.12,7.1,9.53-3.26-2.31-6.2-4.93-9.15-7.43-2.92-2.53-5.93-4.8-9.06-7.02-3.14-2.2-6.42-4.28-9.65-6.49-3.24-2.2-6.47-4.43-9.55-6.95,2.69,.93,5.28,2.01,7.84,3.18-1.19-.79-2.38-1.58-3.56-2.38-3.24-2.2-6.47-4.43-9.54-6.95,3.76,1.3,7.36,2.9,10.89,4.63,1.69,.83,3.36,1.7,5.01,2.63-3.6-2.49-7.22-4.95-10.88-7.36-6.1-4.01-12.29-7.87-18.52-11.77,6.86,2.65,13.47,5.91,19.9,9.48,5.96,3.3,11.74,6.95,17.33,10.86-2.78-2.02-5.59-4.01-8.42-5.97-5.19-3.56-10.49-6.97-15.81-10.38l-16.09-10.16c5.99,2.21,11.78,4.89,17.43,7.83,5.66,2.94,11.15,6.21,16.46,9.77,.47,.31,.92,.64,1.39,.96-1.86-1.32-3.73-2.63-5.6-3.94-3.95-2.75-7.94-5.48-11.8-8.47,4.54,1.78,8.92,3.87,13.2,6.18,4.28,2.3,8.42,4.91,12.37,7.82,3.95,2.9,7.63,6.19,10.96,9.77,3.32,3.6,6.31,7.48,8.79,11.7-3.71-3.19-7.22-6.47-10.83-9.6-2.15-1.89-4.34-3.7-6.55-5.49,1.09,.92,2.17,1.85,3.22,2.81,4.72,4.32,9.13,9.07,12.59,14.46-1.53-1.42-3.07-2.79-4.63-4.14,.61,.55,1.23,1.09,1.84,1.65,5.38,5.04,10.44,10.48,14.67,16.51"/><path class="cls-6" d="M147.18,421.45s-48.76-91.94-3.01-91.94c15.7,0,48.18,6.07,64.26,7.01,82.99,4.8,123.88-15.67,176.85-15.67,4.21,0,7.14-1.35,8.98-5.06l-4.2-63.63c-34.28-1.68-61.14-16.34-65-36.08-2.58-13.21-2.93-23.68,3.76-31.81,.54-.66,1.13-1.3,1.77-1.91-.81,.25-1.61,.5-2.42,.76-1.78,.94-3.42,2.08-4.82,3.44-2.02,1.99-3.59,4.37-4.64,6.96-2.1,5.2-2.4,11.05-1.42,16.64,1,5.6,3.2,11.02,6.37,15.84,3.14,4.84,7.23,9.11,11.96,12.63-5.19-2.81-9.84-6.77-13.44-11.59-3.6-4.81-6.2-10.44-7.34-16.43-1.12-5.94-.88-12.39,1.84-18,.98-2.07,2.33-3.99,3.95-5.61-1.35,1.1-2.59,2.3-3.68,3.64-3.14,3.87-5.03,8.65-5.43,13.64-.42,4.99,.5,10.09,2.34,14.85,1.81,4.79,4.52,9.28,7.71,13.43-3.83-3.59-7.11-7.87-9.38-12.72-1.68-3.61-2.82-7.55-3.13-11.59-.17-.35-.39-.79-.69-1.37-2.99,.85-25.14,7.41-37.96,18.8,9.53-10.54,33.4-19.29,37-20.57-.21-.37-.43-.77-.68-1.22-26.97,8.91-36.31,17.24-56.83,33.41,16.57-17.36,30.54-31.64,60.5-39.93,1.05-3.04,2.67-5.88,4.88-8.2,.85-.91,1.78-1.73,2.75-2.48-6.15,2.37-12.17,5.07-18.04,8.1-9.9,5.09-19.34,11.08-28.48,17.56-9.16,6.45-18,13.42-27.24,19.98-4.69,3.28-9.32,6.28-13.51,9.94-2.96,2.52-5.78,5.18-8.46,7.97-.45,.47-.9,.95-1.35,1.43-.68,.73-1.36,1.46-2.01,2.21-3.65,4.15-6.79,8.73-9.9,13.44-3.1,4.69-6.38,9.48-10.6,13.42-4.17,3.97-9.04,7.09-14.13,9.56-5.11,2.46-10.44,4.37-15.83,6.02,5.27-1.98,10.46-4.21,15.34-6.95,4.89-2.72,9.47-5.97,13.27-9.98,3.14-3.27,5.7-7.03,8.13-10.92-2.24,2.24-4.56,4.4-7.04,6.42-7.52,6.28-16.37,10.91-25.61,13.85-4.61,1.5-9.33,2.63-14.08,3.47-4.75,.86-9.52,1.48-14.32,1.85,4.73-.88,9.43-1.82,14.06-3.01,4.63-1.2,9.19-2.6,13.64-4.28,4.43-1.71,8.75-3.68,12.82-6.06,4.07-2.39,7.91-5.12,11.48-8.2,3.78-3.26,7.27-6.86,10.7-10.57-1.61,1.19-3.24,2.37-4.9,3.48-9.31,6.23-19.6,11.16-30.38,13.91-10.79,2.82-21.83,3.29-32.57,3.69-5.38,.21-10.75,.58-15.98,1.74-5.22,1.14-10.26,3.4-14.4,6.88,2.01-1.79,4.23-3.37,6.63-4.65,2.4-1.28,4.95-2.26,7.56-3.05,5.23-1.57,10.66-2.23,16.02-2.95,5.37-.69,10.71-1.33,15.96-2.32,.95-.19,1.9-.4,2.85-.61-7.75,1.11-15.54,1.53-23.22,1.82-5.55,.22-11.09,.51-16.51,1.54-5.4,.99-10.71,3.22-14.66,7.19,1.88-2.05,4.14-3.75,6.62-5.05,2.48-1.3,5.15-2.23,7.85-2.96,5.43-1.43,11.02-2.01,16.53-2.75,5.29-.67,10.54-1.34,15.72-2.29-3.23-.11-6.45-.42-9.63-.98-6.2-1.05-12.21-3.19-17.44-6.41,5.74,2.22,11.78,3.14,17.75,3.24,4.14,.04,8.26-.31,12.34-.92-7.87-1.32-15.57-3.73-22.54-7.53-3.6-1.97-7.04-4.26-10.06-7.02-3.02-2.74-5.68-5.9-7.52-9.48,2.32,3.28,5.31,5.96,8.56,8.17,3.26,2.2,6.74,4.02,10.38,5.45,7.27,2.84,14.99,4.32,22.7,4.7,.49,.02,.98,.02,1.47,.04-21.67-2.42-47.66-16.03-56.79-55.15-.39,6.62-.08,13.29,1.23,19.82,1.35,6.7,3.75,13.28,7.56,19.11,3.79,5.82,8.93,10.85,14.92,14.55-6.07-3.55-11.66-8.07-16.18-13.64-4.54-5.54-8.08-11.97-10.57-18.81-1.45-3.94-2.57-8-3.45-12.12-.06,3.22,.03,6.44,.34,9.66,.35,3.47,.9,6.92,1.78,10.31,.9,3.38,2.09,6.7,3.59,9.89,3.04,6.36,7.53,12.11,13.08,16.61-5.65-4.36-10.63-9.68-14.46-15.85-3.87-6.15-6.55-13.07-8.37-20.19-.69-2.71-1.21-5.46-1.67-8.22-1.13,13.38-.52,27.5,1.14,37.28,7.16,42.26-.72,51.24-1.33,58.18-6.91,79.11,35.2,69.61,60.37,105.18m157.68-208.75c.38,1.98,.94,3.84,1.6,5.67,.68,1.82,1.41,3.61,2.31,5.34,1.78,3.46,4.03,6.66,6.76,9.59-3.39-2.16-6.12-5.34-8.08-8.89-.97-1.78-1.79-3.67-2.27-5.65-.49-1.97-.68-4.06-.32-6.06m-156.31,94.68c8.41-2.02,16.68-4.13,24.62-7.09,7.93-2.94,15.55-6.67,22.54-11.46,7.02-4.72,13.46-10.35,19.62-16.27,6.19-5.92,12.15-12.13,18.27-18.19-5.33,6.76-10.76,13.45-16.62,19.81-5.88,6.33-12.25,12.32-19.4,17.37-7.16,5.01-15.04,9.09-23.39,11.71-8.33,2.63-17,4.01-25.65,4.12"/><path class="cls-15" d="M396.69,176.52h0s0-.04,0-.04v.04m-41.29,14.35c1.05-7.75,13.39-13.68,36.85-14.33-23.45,.66-35.8,6.58-36.85,14.33t0,0m82.56,0c-5.06-4.02-10.04-5.79-14.42-5.79h0c4.38,0,9.35,1.76,14.42,5.78h0m-26.72,1.02h0s0,0,0,0m-29.1,.03c-2.63-4.27-7.03-6.83-12.32-6.84h0c5.28,0,9.69,2.57,12.32,6.84m29.06,.03s.01-.02,.02-.03c0,0-.01,.02-.02,.03m-28.97,.01c2.98-4.5,7.58-8.2,14.45-8.2h0c-5.87,0-11.46,3.7-14.45,8.2m-.03,.05s-.01-.02-.02-.03c0,0,.01,.02,.02,.03m28.96,0s-.02-.03-.03-.05c0,.02,.02,.03,.03,.05"/><path class="cls-8" d="M411.18,192.02s-.02-.03-.03-.05c-2.98-4.5-7.58-8.2-14.45-8.2h-.01c-6.86,0-11.46,3.7-14.45,8.2-.01,.02-.02,.03-.03,.05,0,0-.01-.02-.02-.03-.01-.02-.03-.05-.04-.07-2.63-4.27-7.03-6.84-12.32-6.84h0c-4.38,0-9.36,1.76-14.42,5.79,1.05-7.75,13.39-13.68,36.85-14.33,1.43-.04,2.91-.06,4.43-.06v.03s0,.01,0,.01v-.04c26.33,0,40.16,6.17,41.28,14.39-5.06-4.02-10.04-5.78-14.42-5.78h0c-5.27,0-9.67,2.56-12.3,6.81h0s-.01,.02-.02,.04c0,0-.01,.02-.02,.03-.01,.02-.03,.04-.04,.06"/><path class="cls-7" d="M194.78,255.88c-.83,.64-1.67,1.26-2.51,1.88-8.69,3.02-17.84,4.77-27.86,4.77-1.25,0-2.53-.03-3.8-.08-10.73-.47-41.03-5.12-54.93-40.96-.08-1.29-.14-2.59-.14-3.9,0-29.39,21-53.96,48.78-59.52,6.52,10.68,12.38,20.12,17.73,28.46-1.96-.38-3.97-.59-6.03-.59-17.48,0-31.65,14.17-31.65,31.65s14.17,31.65,31.65,31.65c15.77,0,28.8-11.54,31.21-26.63,5.82,7.23,10.88,12.42,15.62,16.07-5.5,6.29-11.45,12.12-18.06,17.19"/><path class="cls-12" d="M163.57,173.1c2.98,4.79,5.79,9.23,8.48,13.44-1.96-.38-3.97-.59-6.04-.59-17.48,0-31.65,14.17-31.65,31.65s14.17,31.65,31.65,31.65c15.77,0,28.81-11.54,31.21-26.63,3.73,4.64,7.17,8.46,10.4,11.55-6.59,16.4-22.65,28.01-41.37,28.01-24.58,0-44.58-20-44.58-44.58s18.56-43.1,41.9-44.5"/><path class="cls-7" d="M152.5,206.65c0,4.41,3.57,7.99,7.99,7.99s7.99-3.58,7.99-7.99-3.58-7.99-7.99-7.99-7.99,3.57-7.99,7.99"/><path class="cls-7" d="M174.75,223.14c0,2.45,2,4.43,4.44,4.43s4.43-1.98,4.43-4.43-1.98-4.43-4.43-4.43-4.44,1.99-4.44,4.43"/><path class="cls-7" d="M172.08,232.59c0,1.41,1.15,2.56,2.56,2.56s2.56-1.15,2.56-2.56-1.14-2.56-2.56-2.56-2.56,1.14-2.56,2.56"/><path class="cls-5" d="M108.63,217.59c0-28.29,20.49-51.86,47.41-56.7,1.87,3.06,3.68,6.01,5.45,8.86-24.28,2.4-43.32,22.93-43.32,47.83,0,4.3,.58,8.47,1.64,12.44,0,0-1.23-1.65-2.73-5.59,0,0,.22,3.45,.11,5.31-.65-1.68-2.3-5.68-2.59-11.82-.1,3.59-.02,6.85,.02,10.96-1.45-3.94-1.88-10.6-1.88-10.6,0,0-.88,5.57-.48,12.4-1.76-7.71-1.96-15.32-1.96-15.32-1.2,6.34-.32,14.66-.32,14.66-.89-4.01-1.37-8.17-1.37-12.44"/><path class="cls-4" d="M194.2,248.14s3.96-4.52,5.88-8.75c0,0-3.28,4.39-7.5,8.2,3.06-3.85,4.86-7.48,4.86-7.48,0,0-3.01,3.73-5.5,5.45,1.73-2.4,3.13-4.28,4.55-6.43-2.71,3.49-5.34,5.16-6.42,5.87,.71-1.13,2.27-3.07,2.27-3.07-2.51,1.7-3.92,2.15-3.92,2.15,2.27-1.9,4.33-4.1,6.11-6.63,2.56-3.63,4.29-7.6,5.28-11.67,1.86,2.21,3.65,4.19,5.38,5.97-1.23,3.35-2.9,6.6-5.05,9.65-1.77,2.51-3.77,4.76-5.96,6.75"/><path class="cls-4" d="M133.85,205.62s-.04-1.48,.71-4.41c0,0-1.3,2.12-2.13,3.17,.31-1.26,1-4.29,3.37-8.02-1.55,2.06-2.85,4.01-4.53,6.45,.77-2.92,3.28-7.01,3.28-7.01,0,0-2.82,2.91-5.42,7.09,2.16-5.26,5.2-9.82,5.2-9.82-3.33,3.23-6.26,8.48-6.26,8.48,1.14-2.72,2.58-5.37,4.35-7.88,7.88-11.18,20.32-17.27,33.04-17.53,1.52,2.43,3,4.77,4.44,7.05-1.19-.12-2.39-.19-3.58-.19-10.87,0-21.57,5.09-28.29,14.62-1.78,2.53-3.17,5.22-4.19,7.99"/><path class="cls-9" d="M229.95,374.8c-4.08,25.41,9.79,76.93,12.96,77.49,5.45,.95,7.18-20.11,13.67-42.1,5.01-16.99,11.3-40.1,8.81-46.01-4.17-9.9-29.29-27.63-35.43,10.63"/><path class="cls-9" d="M194.49,364.59c-2.09,10.97,6.33,30.29,8.66,31.07,2.91,.96,5.09-3.31,10.09-12.61,4.48-8.33,12.82-12.91,8.01-18.69-3.99-4.8-20.45-32.91-26.77,.24"/><path class="cls-9" d="M166.63,342.64c-5.93,6.64-2.89,19.44-.02,22.44,2.64,2.75,7.97,2.03,13.72-4.12,5.16-5.52,10.11-11.06,6.77-16.36-2.77-4.4-17.54-5.24-20.47-1.95"/><path class="cls-7" d="M256.57,397.19c1.89-10.41,11.03-31.35,1.89-30.58-1.9,.16-15.71-6.23-20.22,0-.97,1.34-5.45,9.61-6.94,12.76-.69,1.46-.25,16.78,.02,18.43,.76,4.63,1.39,12.58,2.54,17.21,.97,3.89,4.89,17.17,7.63,24.44,5.89-5.81,3.37-26.7,4.09-34.3,1.85,5.39,.93,12.85,3.17,18.03,2.92-5.41,.74-12.12,3.61-17.79,1.44-2.84,3.77-5.4,4.2-8.56"/><path class="cls-9" d="M278.06,356.05c-6.93,12.87,4.73,53.23,6.98,53.61,3.87,.66,8.47-4.45,13.3-22.87,3.12-11.87,10.22-21.77,5.97-29.59-3.53-6.48-19.35-13.96-26.25-1.14"/><path class="cls-7" d="M295.21,369.16c-2.89,0-5.89-.28-8.77,0-1.36,.13-2.5,.62-3.86,.36-1.16-.22-2.35-2.63-3.4-.1-.49,1.18-2.11-1.09-1.92,.23,.54,3.72,.98,10.1,1.8,13.82,.69,3.13,3.48,13.79,5.43,19.63,4.19-4.67,3.06-11.12,3.57-17.22,1.32,4.33,0,0,1.59,4.16,2.08-4.35,.53-9.74,2.57-14.29,1.03-2.28,2.68-4.34,2.98-6.87"/><path class="cls-7" d="M213.29,367.07c-.02,4.86-1.92,25.88-9.57,26.05-6.71,.15-8.04-26.51-5.82-33.67,6.62-1.3,14.05,4.68,15.39,11.04"/><path class="cls-7" d="M180.33,358.41c-2.5,2.12-6.61,7.43-10.37,6.1-2.99-1.06-5.79-9.28-5.77-11.75,4.27-.69,13.63,2.33,15.18,6.6"/><path class="cls-9" d="M357.74,372.22c0,7.07,9.26,18.55,15.01,18.55s15.02-8.93,15.02-18.55c0-6.53-6.72-27.38-15.02-27.38s-15.01,20.38-15.01,27.38"/><path class="cls-7" d="M379.99,365.98c-4.69,1.77-11.77-2.22-16.29,1.03-1.5,1.08-1.88,2.59-1.99,4.22-.28,4.33,1.65,10.59,3.91,14.14-.04-5.82,.67-9.08,1.53-18.62,1.02,.92,.52,3.65,.52,5.03,0,4.95,.37,9.85,.72,14.74,2.02,1.65,3.64-2.83,4.73-4.1,1.89-2.2,3.89-3.41,5.05-6.13,1.27-2.97,3.17-6.84,1.83-9.84"/><path class="cls-9" d="M316.44,378.17c0,6.49,10.29,12.6,14.82,12.6s14.82-7.48,14.82-12.6c0-10.15-6.64-33.26-14.82-33.26s-14.82,23.11-14.82,33.26"/><path class="cls-7" d="M338.31,365.98c-4.69,1.77-11.77-2.22-16.29,1.03-1.5,1.08-1.89,2.59-2,4.22-.28,4.33,1.65,10.59,3.91,14.14-.04-5.82,.67-9.08,1.52-18.62,1.02,.92,.52,3.65,.52,5.03,0,4.95,.37,9.85,.73,14.74,2.02,1.65,7.42,.64,8.51-.63,1.89-2.2,2.49-6.63,3.65-9.35,1.27-2.96,.78-7.08-.56-10.09"/><path class="cls-14" d="M73.21,223.17c6.91,32.57,10.49,60.29,12.84,84.86,.81,8.45-3.32,7.14-3.32,7.14l-9.52-92"/><path class="cls-2" d="M335.62,238.63c-.99-.53-1.96-1.11-2.9-1.73,.17-.05,.35-.1,.52-.16,.77,.65,1.57,1.28,2.38,1.88m53.63,13.49c-21.31-1.18-39.68-7.38-51.33-16.68,1.5-.39,2.99-.75,4.49-1.08,0,0,20.73,13.78,46.16,17.12,.23,.13,.46,.35,.68,.64m-25.58,75.11l10.49-6.09c2.3-.12,4.61-.2,6.94-.25l-17.44,6.34m3.97,5.43l18.6-11.84c3.69-.2,6.32-1.61,8.02-5.03l.32,4.84-26.94,12.03"/><path class="cls-2" d="M394.58,320.64l-.32-4.84s0,0,0,0l-4.08-61.83c4.83,12.56,6.2,65.87,6.2,65.87l-1.81,.81"/><path class="cls-10" d="M359.43,322.26l23.61-12.53-28.39,8.03,20.95-11.58-26.19,6.3,19.41-10.45-25.61,6.33,17.42-10.6-24.87,7.62,19.49-11.67-26.04,7.91,20.91-12.69-30.58,9.28,26.34-14.68-35.76,12.39,35.24-20.99-46.11,18.59,44.01-26.45-56.18,23.2,53.06-30.05-66.43,29.12,64.11-36.17s-30.35,10.19-77.16,35.27c30.3-24.5,74.77-43.2,74.77-43.2-39.01,7.53-89.76,43.18-89.76,43.18,0,0,42.17-37.85,87.06-51.51,.94,.62,1.91,1.19,2.9,1.73-.81-.6-1.61-1.23-2.38-1.88,1.56-.47,3.12-.9,4.68-1.31,11.66,9.31,30.03,15.51,51.33,16.69,.32,.44,.64,1.06,.94,1.84l4.08,61.83s0,0,0,0c-1.7,3.42-4.33,4.83-8.02,5.03l6.58-4.19-11.72,4.26c-2.33,.05-4.65,.13-6.94,.25l13.73-7.97-28.47,9.08"/><path class="cls-2" d="M369.37,292.26c-1.71,3.47-9.09,2.07-13.96,2.37,6.62-2.05,8.11-5.52,10.96-6,2.2-.37,3.58,2.44,3,3.62"/><path class="cls-2" d="M323.59,308.15c-1.71,3.47-9.09,2.07-13.96,2.37,6.63-2.05,8.11-5.52,10.96-6,2.2-.37,3.59,2.44,3,3.63"/><path class="cls-2" d="M340.97,286.91c-.79,3.79-8.28,4.28-12.92,5.78,5.9-3.64,6.47-7.37,9.11-8.54,2.05-.91,4.08,1.47,3.81,2.76"/><path class="cls-2" d="M328.03,267.2c-.79,3.79-8.29,4.28-12.92,5.78,5.9-3.64,6.47-7.37,9.11-8.54,2.04-.91,4.08,1.47,3.81,2.76"/><path class="cls-2" d="M350.26,310.49c-.79,3.79-8.28,4.28-12.92,5.78,5.9-3.64,6.47-7.37,9.12-8.54,2.04-.91,4.07,1.47,3.8,2.76"/><path class="cls-2" d="M358.96,268.65c-1.46,3.59-8.92,2.73-13.75,3.38,6.46-2.53,7.69-6.09,10.5-6.78,2.17-.53,3.75,2.17,3.26,3.4"/><path class="cls-2" d="M311.78,287.4c-1.45,3.59-8.92,2.73-13.75,3.38,6.46-2.53,7.69-6.09,10.5-6.78,2.17-.53,3.75,2.17,3.25,3.4"/><g><path class="cls-10" d="M80.94,40.56l59.29,49.01-42.15-42.5,49.45,39.38-33-33.55,40.1,31.24-22.27-22.19,29.47,20.77-14.05-15.08,19.88,14.05-4.11-6.85,15.08,8.57s-28.84,7.36-38.73,14.74l-58.95-57.58Zm-12.48,161.01c-4.95-25.01-22.88-156.38-7.36-162.06,10.57-3.87,70.46,64.9,70.46,64.9,0,0-15.44,10.01-33.17,37.43-3.14,4.85-5.91,10.22-8.42,15.7,6.04-9.96,12.29-18.45,18.82-25.66,5.75-4.68,12.16-8.47,19.16-9.82,6.97-1.41,14.25-.45,20.94,2.16,6.71,2.59,12.92,6.55,18.65,11.09,5.75,4.54,11.04,9.71,16.08,15.15-4.23-6.09-9.17-11.74-14.73-16.75-5.58-4.96-11.86-9.34-18.94-12.2-3.54-1.4-7.27-2.45-11.11-2.85-3.83-.4-7.76-.18-11.49,.8-5.26,1.34-9.97,4.07-13.92,7.57,5.93-5.9,12.08-10.83,18.5-14.92,3.76-1.76,7.54-3.21,11.39-4.15,1.93-.44,3.86-.79,5.8-.99,1.94-.19,3.88-.23,5.8-.16,7.7,.31,15.26,2.69,22.12,6.54,6.87,3.84,13.13,8.91,18.78,14.64,5.69,5.71,10.73,12.11,15.39,18.9-3.12-7.64-7.49-14.79-12.75-21.27-5.32-6.43-11.61-12.22-18.96-16.56-3.68-2.14-7.6-3.96-11.75-5.19-4.14-1.23-8.52-1.81-12.86-1.63-1.41,.06-2.81,.24-4.2,.47,27.35-10.43,59.43-9.98,98.69-6.99,48,3.65,69.24-23.16,138.02-28.59-70.72,0-97.85,13.96-147.71,13.96-87.19,0-130.44-58.48-180.25-58.48-17.06,0-3.46,124.19,9.02,178.99"/><g class="cls-18"><rect class="cls-10" x="42.38" y="22.57" width="345.02" height="178.99"/></g></g><g><path class="cls-2" d="M185.85,332.1c-3.85-.39-7.7-.83-11.54-1.29-7.69-.89-15.36-1.84-23.02-2.54-3.83-.32-7.65-.6-11.43-.6-3.76,.01-7.53,.34-10.77,1.57-1.61,.64-3.03,1.54-4.24,2.75-1.19,1.22-2.19,2.72-3.02,4.37-1.68,3.31-2.85,7.03-4.25,10.68,.17-3.91,.65-7.81,1.96-11.66,.68-1.9,1.61-3.83,3.04-5.47,1.39-1.67,3.26-2.97,5.24-3.78,1.98-.84,4.03-1.29,6.05-1.51,2.02-.24,4.02-.31,6-.3,3.97,.03,7.87,.36,11.74,.82,7.74,.9,15.39,2.19,23.01,3.56,3.81,.69,7.62,1.42,11.42,2.2,3.8,.76,7.6,1.51,11.38,2.36-3.86-.32-7.72-.75-11.57-1.16m109.44,4.74c-6.35,.38-12.69,.63-19.03,.57-6.34-.08-12.67-.36-18.97-.86-12.62-1.03-25.1-3.2-37.53-5.66l-18.65-3.86c-6.23-1.27-12.46-2.6-18.76-3.63-12.57-2.1-25.4-3.33-38.16-2.55,12.66,1.64,25.13,3.53,37.58,5.86,6.22,1.17,12.45,2.33,18.68,3.6,6.22,1.26,12.46,2.54,18.73,3.66,12.52,2.34,25.23,4.03,37.98,4.63,6.38,.32,12.77,.34,19.13,.02,6.37-.3,12.72-.88,19.01-1.78m37.73-10.84c-9.16,.49-18.3,1.14-27.44,1.8-9.13,.66-18.25,1.34-27.36,1.6-9.11,.26-18.17-.19-27.25-1.09-9.08-.9-18.18-2.02-27.33-2.84,8.95,2.06,17.94,3.87,27.06,5.14,9.11,1.3,18.4,1.77,27.6,1.41,9.22-.32,18.35-1.26,27.46-2.3,9.11-1.07,18.19-2.32,27.26-3.71"/><path class="cls-2" d="M368.51,173.95c1-.06,2.02-.1,3.09-.1-1.06,0-2.07,.05-3.09,.1"/><path class="cls-2" d="M424.88,173.95c-1.02-.05-2.03-.1-3.09-.1,1.07,0,2.09,.04,3.09,.1"/></g><g><path class="cls-10" d="M251.21,125.84c6.44,4.51,12.53,9.53,18.77,14.43,3.1,2.47,6.23,4.95,9.46,7.3,3.21,2.38,6.52,4.65,9.98,6.69,6.88,4.09,14.57,7.3,22.56,7.83-.54-.12-1.06-.27-1.59-.41,.87,.16,1.75,.3,2.63,.41-6.29-2.01-12.24-4.76-17.44-8.56-2.61-1.88-5.03-4-7.36-6.24-2.31-2.26-4.52-4.63-6.72-7.05-4.36-4.87-8.86-9.82-14.05-14.06-5.2-4.21-11.09-7.63-17.41-9.65,5.68,3.42,10.92,7.24,15.62,11.7,4.77,4.38,8.98,9.34,13.5,14.16,1.58,1.71,3.22,3.41,4.92,5.04-4.08-3.12-8.07-6.4-12.1-9.65-6.14-5.03-12.46-9.95-19.26-14.23-6.81-4.21-14.15-7.78-21.93-9.61,7.26,3.29,14.02,7.32,20.42,11.89m53.26-30.18c-1.93,3.01-2.62,6.73-2.39,10.27,.28,3.55,1.3,6.98,2.82,10.11,1.5,3.15,3.41,6.06,5.6,8.72,2.17,2.67,4.59,5.13,7.22,7.33,2.61,2.22,5.42,4.19,8.37,5.9,5.89,3.42,12.38,5.85,19.05,6.71-6.39-2.05-12.37-5-17.79-8.72-5.42-3.71-10.31-8.14-14.37-13.21-3.95-5.09-7.31-10.86-8.19-17.11-.45-3.1-.14-6.3,1.2-9.16,1.31-2.89,3.67-5.3,6.41-7.23-3.12,1.22-6.04,3.38-7.94,6.4m83.73,62.17l-2.07-69-3.4,41.18c-.6,3.98-2.22,8.03-4.09,9.33,1.48-5.31,1.43-11.37,1.04-17.73-2.95,17.13-8.18,24.23-13.79,26.45-3.37,1.33-6.94,1.58-13.32,.86-22.77-2.59-34.37-9.58-50.94-29.51,3.52,8.28,14.9,21.22,21.61,26.89-8.91-5.48-24.98-17.52-32.48-29.99,5.6,14.09,11.32,24.74,19.73,32.1-4.91-2.65-17.63-12.09-25.97-25.11,9.27,33.62,46.06,39.86,46.06,39.86,0,0-36.5,16.9-50.24,17.08-14.97,.2-25.37-4.35-33.92-9.29,7.48,5.65,12.62,12.77,22.72,16.52-13.71-3.57-34.32-13.02-50.31-25.36,12.61,16.76,31.45,24.3,39.08,28.63-31.95,4.77-59.5-40.38-79.33-48.57,15.1,10.05,31.91,44.72,57.37,62.75-42-5.51-69.81-96.37-127.51-69.72,53.3-18.97,71.94,85.94,124.53,97.49,1.45-1.02,2.87-2.03,4.28-3.08,5.18-3.83,10.28-7.83,15.42-11.81-2.22,.47-4.48,.77-6.76,.86-6.42,.35-12.83-.94-18.71-3.25-5.9-2.29-11.33-5.58-16.17-9.5-4.84-3.93-9.18-8.4-12.92-13.3,4.58,4.12,9.28,8.03,14.32,11.41,5.02,3.37,10.31,6.31,15.93,8.3,5.61,1.98,11.53,2.92,17.39,2.64,5.4-.29,10.71-1.68,15.71-3.87,.89-.67,1.77-1.34,2.66-2,.69-.51,1.4-1,2.09-1.5-.35,.14-.69,.3-1.04,.44-4.01,1.54-8.17,2.97-12.57,3.48-4.39,.57-8.86-.06-12.87-1.52,4.28,.36,8.47,.2,12.46-.8,3.99-.98,7.85-2.54,11.68-4.26,6.18-2.8,12.29-5.9,18.49-8.86,1.18-.83,2.39-1.65,3.64-2.47-1.57,0-3.14-.05-4.7-.31-1.81-.33-3.75-.77-5.12-2.05,1.5,1.11,3.4,1.32,5.19,1.45,1.82,.1,3.64-.03,5.43-.28,.49-.07,.98-.16,1.46-.25,.42-.26,.83-.51,1.26-.77-.55,0-1.1,0-1.65-.03-1.99-.1-3.97-.36-5.89-.85-1.89-.51-3.85-1.14-5.32-2.46,1.58,1.16,3.55,1.57,5.44,1.88,1.91,.28,3.85,.34,5.76,.24,.99-.05,1.97-.15,2.95-.29-1.03-.14-2.05-.33-3.06-.59-1.89-.51-3.85-1.13-5.32-2.46,1.59,1.16,3.55,1.56,5.44,1.88,1.92,.28,3.85,.34,5.77,.24h.16c3.15-1.74,6.49-3.41,10.07-4.99,8.46-3.73,17.7-6.58,26.92-8.79,19.78-5.62,40.38-8.1,60.87-8.34V76.48s-3.44,81.34-3.44,81.34Z"/><g class="cls-17"><rect class="cls-10" x="108.44" y="76.48" width="283.22" height="156.18"/></g></g><g><path class="cls-6" d="M251.21,125.84c6.44,4.51,12.53,9.53,18.77,14.43,3.1,2.47,6.23,4.95,9.46,7.3,3.21,2.38,6.52,4.65,9.98,6.69,6.88,4.09,14.57,7.3,22.56,7.83-.54-.12-1.06-.27-1.59-.41,.87,.16,1.75,.3,2.63,.41-6.29-2.01-12.24-4.76-17.44-8.56-2.61-1.88-5.03-4-7.36-6.24-2.31-2.26-4.52-4.63-6.72-7.05-4.36-4.87-8.86-9.82-14.05-14.06-5.2-4.21-11.09-7.63-17.41-9.65,5.68,3.42,10.92,7.24,15.62,11.7,4.77,4.38,8.98,9.34,13.5,14.16,1.58,1.71,3.22,3.41,4.92,5.04-4.08-3.12-8.07-6.4-12.1-9.65-6.14-5.03-12.46-9.95-19.26-14.23-6.81-4.21-14.15-7.78-21.93-9.61,7.26,3.29,14.02,7.32,20.42,11.89m53.26-30.18c-1.93,3.01-2.62,6.73-2.39,10.27,.28,3.55,1.3,6.98,2.82,10.11,1.5,3.15,3.41,6.06,5.6,8.72,2.17,2.67,4.59,5.13,7.22,7.33,2.61,2.22,5.42,4.19,8.37,5.9,5.89,3.42,12.38,5.85,19.05,6.71-6.39-2.05-12.37-5-17.79-8.72-5.42-3.71-10.31-8.14-14.37-13.21-3.95-5.09-7.31-10.86-8.19-17.11-.45-3.1-.14-6.3,1.2-9.16,1.31-2.89,3.67-5.3,6.41-7.23-3.12,1.22-6.04,3.38-7.94,6.4"/><g class="cls-20"><rect class="cls-6" x="108.44" y="76.48" width="283.22" height="156.18"/></g></g><polygon class="cls-2" points="389.8 248.1 396.69 188.18 396.7 188.18 403.59 248.1 396.7 352.49 396.69 352.49 389.8 248.1"/><path class="cls-11" d="M226.95,283.95c4.23-6.03,9.29-11.47,14.67-16.51,.6-.56,1.23-1.1,1.84-1.65-1.56,1.36-3.1,2.72-4.63,4.14,3.46-5.39,7.87-10.14,12.59-14.46,1.06-.96,2.13-1.89,3.22-2.81-2.21,1.78-4.4,3.6-6.55,5.49-3.61,3.13-7.12,6.41-10.83,9.6,2.48-4.22,5.47-8.1,8.79-11.7,3.33-3.59,7.01-6.88,10.96-9.77,3.94-2.91,8.09-5.52,12.37-7.82,4.28-2.31,8.66-4.41,13.2-6.18-3.85,2.99-7.85,5.71-11.79,8.47-1.88,1.31-3.75,2.62-5.6,3.94,.47-.32,.92-.65,1.39-.96,5.31-3.56,10.8-6.83,16.46-9.77,5.66-2.95,11.44-5.62,17.43-7.83l-16.09,10.16c-5.32,3.4-10.62,6.81-15.81,10.38-2.83,1.96-5.63,3.94-8.41,5.97,5.59-3.91,11.36-7.56,17.33-10.86,6.43-3.57,13.04-6.83,19.9-9.48-6.23,3.9-12.42,7.76-18.51,11.77-3.66,2.41-7.28,4.87-10.88,7.36,1.64-.93,3.31-1.81,5.01-2.63,3.53-1.74,7.13-3.33,10.89-4.63-3.08,2.51-6.31,4.75-9.54,6.95-1.18,.81-2.37,1.59-3.56,2.38,2.56-1.17,5.16-2.26,7.84-3.18-3.08,2.51-6.31,4.75-9.54,6.95-3.23,2.21-6.51,4.29-9.65,6.49-3.14,2.22-6.14,4.49-9.06,7.02-2.94,2.5-5.89,5.11-9.15,7.43,2.08-3.41,4.44-6.56,7.1-9.53,.5-.55,1.03-1.09,1.56-1.62,1.17-1.56,2.4-3.06,3.71-4.52,.76-.84,1.56-1.66,2.39-2.45-4.2,3.13-8.37,6.3-12.44,9.61-5.66,4.57-11.16,9.33-16.6,14.29"/><path class="cls-2" d="M73.21,223.17l9.52,92s.23,.07,.58,.07c1.1,0,3.36-.76,2.74-7.21-2.36-24.57-5.93-52.28-12.84-84.86m71.49,213.74c-9.98,0-22.12-5.38-31.23-7.13-8.68-1.67-17.25-3-25.18-5.18-2.24-6.44-4.06-13.42-5.5-20.66-3.43-17.18-4.78-35.81-4.78-52.1,0-15.19,1.17-28.38,2.87-36.39l.06-.27-.04-.27c-1.24-8.31-3.12-27.79-5.1-48.37-1.29-13.41-2.67-27.72-3.95-39.63-.64-5.96-1.26-11.31-1.82-15.66-.17-1.3-.34-2.51-.5-3.62,5.73-1.92,11.18-4.58,16.65-6.65,6.2-2.35,8.49-2.83,20.07-7.54l-4.88,3.54c-.22,6.27-.74,11.43-1.38,15.86-.27-1.03-.53-2.07-.78-3.14-.17,2.83-.21,5.68-.09,8.52-.96,5.32-1.97,9.56-2.51,13.68-.15-.39-.29-.77-.43-1.16-1.45-3.94-2.57-8-3.45-12.12-.06,3.22,.03,6.45,.34,9.66,.35,3.47,.9,6.92,1.78,10.31,.56,2.09,1.22,4.15,2,6.18,.26,1.42,.59,2.91,1.03,4.49,.18,.65,.32,1.28,.43,1.9-.43-.63-.84-1.27-1.25-1.92-3.87-6.15-6.55-13.07-8.37-20.19-.69-2.71-1.21-5.46-1.67-8.22-1.13,13.39-.52,27.5,1.14,37.28,7.16,42.25-.72,51.24-1.33,58.18-6.91,79.11,35.2,69.61,60.37,105.18,0,0-14.72-27.75-20.4-52.76,1.33,.65,2.6,1.35,3.83,2.37,9.03,7.47,1.8,17.8,8.84,28.15,7.47,10.99,12.33,23.26,8.35,37.51-1.01,.13-2.04,.19-3.1,.19"/><path class="cls-2" d="M88.29,424.59c-.06-.01-.12-.03-.18-.05-12.92-37.04-11.27-90.86-7.28-109.37-2.61-17.16-8.03-84.33-11.41-107.52,.03-.01,.06-.02,.09-.03,.16,1.11,.33,2.32,.5,3.62,.57,4.35,1.18,9.7,1.82,15.66,1.28,11.91,2.66,26.22,3.95,39.63,1.98,20.58,3.86,40.06,5.1,48.37l.04,.28-.06,.27c-1.69,8.01-2.87,21.21-2.87,36.39,0,16.29,1.34,34.91,4.78,52.1,1.44,7.24,3.26,14.22,5.5,20.66"/><path class="cls-10" d="M99.09,218.2c-.11-2.84-.07-5.68,.09-8.52,.25,1.06,.51,2.11,.78,3.14-.28,1.92-.57,3.7-.88,5.38m-2.26,26.55c-.78-2.03-1.45-4.09-2-6.18-.89-3.39-1.44-6.85-1.79-10.31-.31-3.21-.4-6.44-.34-9.66,.88,4.12,2,8.18,3.45,12.12,.14,.39,.28,.77,.43,1.16-.54,4.08-.62,8.05,.25,12.87m50.35,176.7c-25.17-35.57-67.28-26.07-60.37-105.18,.61-6.94,8.49-15.93,1.33-58.18-1.66-9.78-2.27-23.9-1.14-37.28,.46,2.77,.98,5.51,1.67,8.22,1.82,7.12,4.5,14.04,8.37,20.19,.4,.65,.82,1.29,1.25,1.92,2.12,11.58-6.19,17.55,13.1,27.16-11.04,5.65-12.54,18.5-13.16,26.19-.75,9.43,3.71,13.19,11.66,16.36-3.34,3.02-4.48,8.09-5.04,12.64-.66,5.31,1.32,14.88,4.04,19.18,7.69,12.16,13.21,13.75,17.9,16.03,5.68,25.01,20.4,52.76,20.4,52.76"/><path class="cls-10" d="M83.31,315.24c-.34,0-.58-.07-.58-.07l-9.52-92c6.91,32.58,10.49,60.29,12.84,84.86,.62,6.45-1.64,7.21-2.74,7.21"/><path class="cls-2" d="M101.91,382.46c-1.94-10.24-.43-26.27,.93-34.33,1.33-8.04,3.63-15.94,7.44-23.13,1.9-3.6,4.18-6.99,6.89-10.05,2.74-3.03,5.9-5.71,9.43-7.86,3.52-2.17,7.45-3.71,11.53-4.63,2.04-.47,4.13-.74,6.24-.8,2.1-.05,4.24,.02,6.27,.64-4.06-1.3-8.43-1.17-12.65-.67-4.25,.56-8.4,1.85-12.35,3.67-7.89,3.68-14.59,9.85-19.68,17.04-5.1,7.23-8.68,15.42-11.37,23.8-2.64,8.39-4.44,17.07-5.64,25.7l12.96,10.64Z"/><path class="cls-2" d="M84.14,344.11c.25-6.29,.63-12.54,1.44-18.73,.77-6.2,1.89-12.34,3.61-18.29,.87-2.97,1.89-5.9,3.16-8.72,1.3-2.8,2.85-5.49,4.73-7.95,1.86-2.49,4.16-4.64,6.65-6.58,2.48-1.96,5.21-3.63,7.76-5.54-2.67,1.73-5.5,3.17-8.24,4.84-2.75,1.65-5.34,3.64-7.69,5.92-2.35,2.28-4.4,4.88-6.21,7.63-1.84,2.72-3.44,5.61-4.88,8.56-2.86,5.91-5.12,12.07-7.16,18.26-1.99,6.21,.07,12.07-1.53,18.35l8.38,2.26Z"/></svg>