<?xml version="1.0" encoding="utf-8"?>
<!-- Generator: Adobe Illustrator 23.1.1, SVG Export Plug-In . SVG Version: 6.00 Build 0)  -->
<svg version="1.1" id="Layer_1" xmlns="http://www.w3.org/2000/svg" xmlns:xlink="http://www.w3.org/1999/xlink" x="0px" y="0px"
	 viewBox="0 0 1170 50" style="enable-background:new 0 0 1170 50;" xml:space="preserve">
<style type="text/css">
	.st0{fill:#FFFFFF;}
</style>
<title>horizontal-break</title>
<g>
	<path class="st0" d="M147.8,32c-0.5,0-0.2,0,1.1,0l0.9,0L147.8,32z"/>
	<path class="st0" d="M156.4,32.1c1.5,0,3.2,0.1,2.2,0.1c-1.5-0.1-1.8-0.1-3.4-0.1c-1.3,0-2.2,0-2,0c-0.5,0-1.9,0-2.7,0
		C152.2,32.1,154.3,32.1,156.4,32.1C156.9,32.1,156.5,32.1,156.4,32.1z"/>
	<path class="st0" d="M280.4,31.3l-0.8,0.1C279.8,31.3,280.1,31.3,280.4,31.3z"/>
	<path class="st0" d="M357.2,30.6c-0.6,0-0.8-0.1-0.9-0.2C356.9,30.5,357.3,30.6,357.2,30.6z"/>
	<path class="st0" d="M370.3,29.8c-0.3,0-0.5,0-0.8,0.1C369.8,29.7,370.1,29.7,370.3,29.8z"/>
	<path class="st0" d="M280.4,31.3l2.1-0.2C282.6,31.3,281.4,31.3,280.4,31.3z"/>
	<path class="st0" d="M173.5,32.4c-0.4,0-0.8,0-1.1,0C172.7,32.4,173,32.4,173.5,32.4C173.4,32.4,173.4,32.4,173.5,32.4z"/>
	<path class="st0" d="M246.5,31.1l-0.6,0c-0.2,0-0.4-0.1-0.5-0.2L246.5,31.1z"/>
	<path class="st0" d="M220.5,31.3c0.6,0,0.8,0.3,1,0.4c-0.3-0.1-0.8-0.2-1.3-0.2C220.2,31.4,220.3,31.3,220.5,31.3z"/>
	<path class="st0" d="M179.3,31.9l-0.7,0C178.7,31.9,179.1,31.9,179.3,31.9z"/>
	<path class="st0" d="M265.1,30.9c0-0.1,0.1-0.1,0.2-0.2C265.3,30.8,265.2,30.8,265.1,30.9z"/>
	<path class="st0" d="M992.1,32.7C992.1,32.7,992.1,32.6,992.1,32.7C992.3,32.7,992.3,32.7,992.1,32.7z"/>
	<polygon class="st0" points="1022.3,32 1021.8,32 1021.8,32 	"/>
	<path class="st0" d="M394.3,28.8c0,0-0.1,0-0.1,0C393.6,28.7,393.9,28.7,394.3,28.8z"/>
	<path class="st0" d="M614.7,28.7c-2.5,0.7,4.1,0.9,0.3,1.7C615.4,30.1,611.6,29.2,614.7,28.7z"/>
	<path class="st0" d="M174.1,32.4c0.4,0,0.7,0,1.1,0C174.7,32.4,174.4,32.4,174.1,32.4z"/>
	<path class="st0" d="M615,30.5L615,30.5l-0.4,0.1C614.8,30.5,614.9,30.5,615,30.5z"/>
	<path class="st0" d="M449.6,28.9c-0.1,0.1-0.3,0.2-0.6,0.3C449.1,29.1,449.2,29,449.6,28.9z"/>
	<path class="st0" d="M408.4,30.1l1-0.1C409,30,408.7,30.1,408.4,30.1z"/>
	<path class="st0" d="M471,29.9c0.6-0.1,0.7-0.2,1.5-0.1c-0.1,0-0.1,0.1-0.2,0.1C472,29.8,471.7,29.8,471,29.9z"/>
	<path class="st0" d="M493.3,29.8c-0.1,0-0.3,0.1-0.4,0.2c-0.2,0-0.5,0-0.7,0L493.3,29.8z"/>
	<path class="st0" d="M924.4,33.6c0.5-0.1,0.8-0.2,1-0.3C925.1,33.5,928.4,33.5,924.4,33.6z"/>
	<path class="st0" d="M173.5,32.3c0.1,0,0.3,0,0.7,0.1C173.9,32.4,173.6,32.4,173.5,32.3C173.3,32.4,173.3,32.3,173.5,32.3z"/>
	<path class="st0" d="M471.9,35.9l3.5-0.1C474.5,35.8,473.2,35.9,471.9,35.9z"/>
	<path class="st0" d="M764.7,34.8l0.8,0.1C765.2,34.9,764.9,34.9,764.7,34.8z"/>
	<path class="st0" d="M486,35.9c0.6-0.3,1.3-0.4,2-0.5c0.1,0.1,0.3,0.1,0.4,0.2L486,35.9z"/>
	<path class="st0" d="M925.5,33.2L925.5,33.2L925.5,33.2z"/>
	<path class="st0" d="M948.8,33.7c-3.4,0.1-1.6-0.3-2.3-0.6c-4-0.1-1.9,0.3-3.2,0.5c-2.5-0.1-4.4-0.4-6.3-0.4
		c-0.1,0.1-0.5,0.1-0.1,0.2c-2.7-0.3-7.9,0.1-11-0.3c-0.2,0-0.3,0.1-0.4,0.1c0.5-0.2,0.6-0.5,0.5-0.6c-1.5,0-2.8-0.3-3.4,0
		c0.9,0,1,0.1,1.4,0.2l-1.6-0.1c-1.4,0.5,2.2,0.1,2.2,0.5c-3.1-0.1-6.7-0.5-9.1-0.3c-0.5,0.5,5.5,0.1,2.4,0.5l3.7-0.2
		c-2.8,0.7,2.2-0.1-0.3,0.7c-4.8,0.2-5.4-0.2-10.2,0c-1.1-0.3,0.4-0.4-0.7-0.7c-6.8-0.4-5.4,1.3-10.4,0.7c-1.3-0.3-1.8-1-5.4-0.6
		l1.2,0.6c-4.7,0.1-2.7-0.8-7.5-0.4c0.9,0.2,3.7,0.2,3,0.3c-3.2,0.5-2.2-0.3-4.7-0.3L886,34c-5-0.1-10.4-0.3-15.9-0.5
		c0.3,0.2,1.2,0.4,0,0.6c-6.9-0.2-14.8,0.2-21.5,0.7l-2.6-0.6c-0.6,0-1.1,0.3-0.5,0.4c-2.6,0.2-0.1-0.4-1.4-0.6c-1.5,0-2,0.3-1,0.5
		c-4.6-0.4-13.1-1-18-0.3l0.9,0.2c-3.8,0.3-4.3-1.2-7.8-0.6l0.7,0.1c-8.2,0.3-17.3-0.2-23.5,0.8c-1.2-1-8.1,0.5-8.6-0.9
		c-4.7,0.7-3.3,0.9-9.9,1.5c-1.8,0.1-2.6-0.9-4.8-1l-0.1,0.7l-3-0.8l-1.6,0.9l-2-0.2c0.8,0,1.7-0.3,1.6-0.6c-3.2-0.3-7.8,0.6-7.9,1
		l-7.5-0.6c0.2,0.3,1.4,0.4,2.4,0.6c-4-0.8-0.7,0.8-4.4,0.1c0.5-0.2-0.3-0.5-0.4-0.6c-1.8,0.5-6,0.5-9.1,0.3l0.6,0.5
		c-5.6,0.2-11.8-0.2-18.1-0.2c2.3-0.3,1.7-1.2-0.1-1.3l-0.7,0.9c-1.2-0.5,1.9-0.3-0.5-1c-2.3,0.1-1.6,1-0.2,1.2l-2.9-0.3
		c-0.2,0.3,0.5,0.4,0.7,0.7c-1.2-0.5-4.9,0.9-6.6,0l-0.2,0.3c-6.3,0-9.1-0.3-14.2-0.3c-0.1-0.8-2.1-0.6-3.6-1.2
		c-3.8,0.3-7.9,0.9-12.5,0.8c-3.2-0.4-0.9-0.7-2.4-1.1c-0.2,0.7-4.8,0.6-2.4,1.1c-5.4-0.1-6.9-0.1-13.8-0.7c0.7-0.3,1.6-0.4,1.1-0.7
		c-1.2-0.1-2.8,0.3-2.7,0.6l0.3,0.1c-7.7-1.1-17.8,2.1-23.9,0.6l0.3,0.1l-6.4-0.8c-2.9,0.1,1.8,0.5-0.4,1
		c-6.9-1.2-10.9,0.2-16.5-0.6c-4.4,2.2-15.5-0.1-21.5,1.2l0.3-0.5c-1.5-0.5-1.8,0.3-3,0.4c0.2-0.4,1.7-0.5,0.7-0.7
		c-12.9-0.6-26.7,0.7-40,1.2c-4.9,0.1-2.8-2.6-8.9-1.4l1.7,0.9c-9.8-1.1-20,0-29.6-1c0.6,0.2,0.6,0.5,1.5,0.5c-2,0.7-7.5,0-7.5-0.5
		c-1.5,0.1-0.3,0.5-1.3,0.8c-2,0.4-5.1-0.9-6.2-0.2c-0.2,0.1,0.6,0.2,0.9,0.3c-1.3-0.3-6.2,0.1-4.9-0.7c-3.6,0.4-6.9-0.4-9.8,0.1
		c-1.9-0.9-6.2,0.4-6.8-0.8c0.3,1.2-6.3,1-8.6,0.4c0.8,0.4-2,0.4-1.1,0.9c-2.6,0-5-0.3-4.5-0.9c-4.8,1.4-9.6-1.2-12.3,0.6
		c-7.7-0.7-14.9-1.1-21.8-1.4c0.3,1.2,7.7,0.1,7.4,1.4c-6.6-0.5-10.4-1.5-16.9-1.3c-1.7,0.1,1,0.5,1.5,0.7c-6.6-0.5-12.7,0-18.6-0.6
		c0,0.1,0.6,0.2,1.2,0.3c-1.2,0-2.7,0.1-2.6-0.4l1.1,0.1c1.8-0.7-4.6-1.5-4.8-1.9c2,1.4-5.8,0.3-2.7,2.2c-0.8-0.1-1.7-0.3-1.5-0.7
		c-1.1,0.1-1.5,0.3-0.3,0.7c-4.1-0.3-2.7-0.8-6.4-0.8c0,0.2,0.8,0.3,1.2,0.6c-1.9-0.5-3.8-0.9-7-0.7c0.2,0.1-0.2,0.3,0.8,0.3
		c-5.4-0.1-9.3-1.2-15.2-0.8c1.8,1-2,0.3-2.3,1.2l-3.2-0.3l1.3-0.4c-2.8,0-5.3-0.6-7.7-0.3l2.1,0.3l-5.3-0.2l3-0.3
		c-2.8-0.4,0.3-1-3.4-0.8c0.8,0.1-2.8,0-4.3,0.5l0,0c-1.4-0.3-2.8-0.5-4.9-0.3c-0.5,0.3,0.4,0.9,0.1,1c-1.4-0.7-6.6-0.2-8.3-0.9
		c0.6,0.2,0.6,0.6,0.4,0.7l-1.1-0.5c-1.3,0.2-1.5,0.2-1.3,0.6c-3.9,0.1,1.2-1-3.4-0.6c0.4,0,0.2,0.1,0.9,0.2
		c-4.7,0.2-9-0.3-13.3-0.1c-1.3,0.7,3.7,0.2,2.3,0.8c-6.2-0.2-12.8-0.9-18.8-0.8l1.1-0.1c-0.8-1-4.5,0.5-7.5,0
		c0.7,0.1,1,0.5,0.8,0.4c-4.1,0.1-8.4-0.3-14.6-0.6l0.8,0.2c-2.4,0.2-6.4,0.1-9,0.2c-0.8-0.2-2.3-0.2-1.4-0.5
		c-8,1.1-15.3-0.7-22.5,0.2c0.9,0,2,0.2,1.4,0.2l-6.1-0.2c0.5-0.3,0.8-0.2,2.1-0.4c-0.8-0.2-2.5-0.3-4-0.3c2.7,0.2,0,0.5-1.2,0.6
		c0.2-0.1-0.2-0.2-0.1-0.3c-3.2,0.5-0.5-0.6-4.9-0.2l0.2,0.1c-1.6-0.1-3.1-0.3-4.9-0.2c-0.7,0.3,1.7,0.1,1.8,0.4
		c-2.5,0-4.8-0.6-7.1-0.3c1,0.1,2.5,0.1,3.6,0.2c-2.4,0.3-2.7,0.2-4.5,0.3l0.2,0l-4.2,0.1l1.1-0.1c-3.1-0.7-6.3-0.2-10.4-0.6
		c4,0.4,0.7,0.2,1,0.5c-1.1,0.1-2.7,0.1-2.2,0.2c-2-0.2-3.3,0.1-6-0.2c-0.1,0.1-2.1,0-1.7,0.2c-2.5-0.1,0.6-0.1,0.4-0.2
		c-3.9-0.3-9.2,0.2-14.9-0.2c-4.9-0.2-5.8-0.4-10.3-0.4c-1.5,0.1,1.2,0.2,1.2,0.2c-2.5,0.1-4.3,0-6.6,0c0.5,0,0,0.1-0.7,0.1
		c-1.9,0-1.2-0.2-3.7-0.1c0.4,0,1,0.1,1.9,0.2c-2.2-0.1-4.4-0.1-6.6-0.2c-0.6,0,1.4,0.1,2.2,0.1c-2.5-0.1-6.5-0.2-7.4-0.2l1.6,0
		c-0.9,0-0.5,0,0.2,0.1c2.2,0.1,3.1,0,3.3,0l-1.6,0c1.7-0.2,6.5,0,9.7,0.1l-1.4-0.2l3.3,0.1c0.7,0,1.2-0.2-0.4-0.2
		c2.3-0.1,2.1,0.1,4.1,0c0.2,0,0.1,0-0.1,0l2.3,0.1c-0.4,0,0.4-0.2-1-0.1c4.1-0.2,6.6,0.1,8.1,0l-0.3,0c5.7,0.1,0.5,0.2,4.8,0.4
		l2.9-0.5l0.6,0.2c0.6,0,1.7,0,1.5-0.1c2.2,0.1-0.4,0.1,0.9,0.2c2.8-0.2,7.8,0.1,8.4-0.3c1,0.2-2.7,0.2,0.3,0.3
		c0.9-0.5,3.5,0.1,6-0.1c-0.8-0.3-3.2-0.1-0.7-0.3c1.6,0.4,5-0.1,7.2-0.1c0.1,0.4,4.7,0.1,8.4,0.2c-0.2-0.1,6.8-0.3,10.2-0.4
		l-0.1-0.1c0.7,0.4,4.1,0.3,6.7,0.4c-0.1-0.3-0.6-0.4-1.9-0.5l2.4,0c0.6,0.1,1.3,0.2,2.9,0.3l-0.6-0.4c3.2,0,6.4,0.4,10.5,0.1
		c0.2,0.4-3.3,1,1.1,1.3c0.2-0.2,0.3-0.5-0.8-0.6c0.4,0,1.3,0.2,2.1,0.1l-1.7-0.3c1.9-0.2,1,0.3,2.5,0.2c0-0.3,1.1-0.2,0.9-0.4
		c-0.4,0-1.3,0.1-1.9,0c1.7-0.1,3.7-0.2,4.4-0.5c-0.1,0.2,0,0.4,1.2,0.4c3.2,0,1.1-0.4,2.9-0.5c0.8,0.2,2.8,0,2.9,0.4
		c0.9,0,1.1-0.2,1.5-0.3c1.6,0.2,7.7,0,5.8,0.5l-0.4,0c0.1,0,0.2,0,0.3,0c0,0,0,0,0,0h0c5.4,0.5,11.2-0.3,16.6-0.1l0-0.2
		c3.2,0.2,7.1,0.1,9.4,0.5c0.9,0,2.2-0.3,1.8-0.6c2.4,0.1,2.7,0.3,6.2,0c-2.5-0.3,0.8-0.3-2.5-0.2c3.2-0.2,3.9-0.5,7.3,0
		c-1.2-0.5,2.4-0.6,3.9-0.5l-2.2,0.4c1.7,0.1,3.2,0,4.7,0l-0.8-0.7c6.5-0.9,11.7,1.3,16.7-0.1c1.7,0.5-3.5,0.4-2,0.9
		c3-0.1,6.1-1.1,7-1.1c4.1-0.4,3.8,1,8.1,0.7c-0.5,0.3-1.1,0.9,2.1,1.2c3-0.1,3.7-1.1,1.8-1.3c-0.7,0-1.1,0.1-1,0.2
		c-1-0.1-2.2-0.2-1.1-0.5l0.4,0.3c1.5-0.3,5.6-0.3,4.6-0.7c2.3,0.2,1,0.4-0.7,0.6c3.8-0.4,6,0,9.9-0.3c-0.6,0.2-1.2,0.5-0.6,0.5
		c5.8-0.4,2.5,0.5,6.5,0.6c2.2-0.4-0.8-1,3.2-0.7c2.4-0.3,0.5-0.7-0.4-1c3.6,0.5,6.7-0.4,8.8-0.5l-1.9-0.2c1.1,0.1,2.1,0.1,3,0.1
		l-1.1,0.6c1.1-0.1,2.1-0.1,2-0.3c1.1,0.4-0.9,0.9,1.4,1.4c1.5-0.3,4.5,0.3,5-0.5c-4.7,0.3,0.5-0.8-3.4-0.9c0.8,0.1,1.7,0.1,2.8,0
		c0.2-0.1-0.2-0.2-0.5-0.2c4.5-0.7,2.1,0.8,6.7,0.8c-0.6-0.4,1.1-0.8,1.8-0.7c-1.9,0-0.9,0.7,0.8,1.1c3-0.4,3.2,0.2,4.8,0.2
		l-1.8,0.2c0.6,0.4,2.1,0.4,4.2,0.5c0.2-0.3-1.9-0.2-1.1-0.4c2.3,0.8,5.2-0.8,8.4-0.3c1.5-0.3,0.1-0.8,1.4-1
		c3.6,0.6,3.9-0.6,7.7-0.2c-1.1,0.6-1.3,0.5,1.4,1l-6.2-0.4l4,0.9c-1.9,0-4-0.4-5.1-0.3c1.9,0.5,1.7,0.3,0.8,0.8
		c2.6-0.9,5.1,0.5,8-0.1l-0.1-1.5c4.5-0.7,7.9,0.7,13.7,0.3l-1.9,0.3c0.8,0.6,3.6,0.1,5.4,0.3c-0.2-0.5,1-0.7,1.8-1
		c-0.1,0.4,4.2-0.1,4.8,1l2.6-0.7c4.7-0.3,5.3,1.5,9.8,1.3c-1.4-0.6,0.7-1-2.3-1.4c1.5,0,2.8-0.1,2.9,0.3c0.9-0.3,4.2,0.7,5.5,0.2
		c0.6,0.2,0.8,0.8,2.5,0.7c0.2-0.1,0-0.3,0-0.3c0,0.3,2.6,0.4,1.2,0.9c4.6-1.7,12.9,0.1,16.9-1.3c3.3,0.2,7.2,0.3,10.2,0.4
		c-0.2-0.2,0-0.3-0.6-0.2c4.1-0.5,2.5,1.6,7.2,1c2.4-0.9-2.5-0.5-1-0.8c0.6-1.8,5.6,0.2,8.8-0.8l-0.8-0.1c2.4-0.6,5.8,0.7,9.8,0.5
		c0,0-0.2-0.2,0-0.3c2.7,0.9,7.7,1.2,11.5,1.5c-1.2-0.7-1.7-0.4-1-1.1c1.7,0.1-0.5,1.2,2.9,1.4c1.1-0.4,3.5-0.7,3.8-1.5l-3.2,0
		c1.6-1,4.1,0,5.8-0.1l-0.2-0.4c4.9,0.1,4.9,1.3,10.2,1.2l-0.5,0.3c2.9,1.1,2.4-0.6,5.3,0.2l0.9-1.1c1.9,0.3,6.6,1.1,10,1.3
		c-1.9-0.8-5.9-1.3-8.3-1.8c1.9,0,6.4,0.1,7.3,0.6c-0.8-0.1-1.7-0.4-2.4-0.2c2.3,0.9,5.3,1.3,9,1.3c-0.7-2.2,9.7-0.6,12.4-2.2
		c6.6,0.8,13.1-0.3,20.8-0.2c-2.7,1.7,2.2,0.1,1.8,1.8c1.8,0.1,2.5,0.1,2.6,0l5.4-1c1.3-0.5-1.7-0.4-1.5-0.8
		c3.9-0.1,1.6-0.7,4.2-1.2c-0.5,0.6,1.4,0.9,3.6,0.7l-3.1,0.8c5.5,0.9,4.7-1.4,10.3-0.5l-1.7-0.5c2.8,0.3,10.5,0,13.2,1.4
		c0.5-0.2,1.2-0.7-0.1-0.8c6.8-0.2,15.1,1.5,20.3,0.7l-0.5-0.4c1.3,0.1,2.2,0.8,3.8,0.4c-0.1-0.2-0.5-0.4,0.1-0.4
		c0.7,0.1,3.4,0.7,5,0.5l-1.4-0.5c6.6-0.5,10.1,1.1,15.7,1.4c0-1.2,5.2-1.6,7.8-1.8l-0.1-0.2c7.7-0.1,13.1,1,20.2,1.5
		c4.4-1.2,15-0.5,22.1-1.1c-1.1,0.2,0.2,0.9,1.4,1c1.7-0.2,4.6,0.8,4.3-0.2l-0.6,0c1.3-1,4.7-0.7,7.4-0.7l0.4,1.3
		c7-1.9,18.3,0.8,22.2-0.9c1.7,0.3,3.8,0.3,5.5,0.7l-0.1-0.7c4.7-0.1,7-0.2,12.8,0l-1.2-0.5c3.3,0,4.1,1.9,7.1,2l0.9-1
		c5.7,0,11.5-0.7,17.1,0.2c-0.1-0.1-0.3-0.4-1.2-0.4c2.7,0,10.4-0.5,9.4,0.7c0.1-0.8,5.9,0,8.9,0.3l-0.5-0.6
		c2.6,0.8,2.7,0.9,6.3,1.2c0.9-0.1,0.8-0.4-0.4-0.3c2.9-0.3,2.2,0.5,5.7,0.3l-1.3-0.4c2.9,0,2.7,0.2,4.3,0.6c1.9,0.2,5.6-0.1,6-0.6
		c0.4,0.3,2,0.7,3.7,0.6c0.2-0.2-0.4-0.3-0.7-0.3c4.9-0.3,7.3,0.6,10.7,0.2c0.1-0.2,0.3-0.2,0.6-0.3c-3.9,0-7.1,0-6.8,0
		c0-0.5,3.2-0.5,0.6-1.2c2.5,0.4,6.9,1.2,9.9,1c0.1,0,0.3-0.1,0.4-0.2l-0.3-0.1c0.7,0,1.3,0,1.9,0.1c1-0.1,1.6-0.1,2.5-0.1
		c0.4-0.4,3.6-0.2,5.2-0.2c-0.1,0.5,1.9,0.4,0,0.8c0.3,0-0.3-0.1-1.3-0.1c-0.2,0-0.5,0-0.7-0.1c0,0,0.1,0,0.1,0c-1,0-2.4,0-3.9-0.1
		c1.2,0.3,2.5,0.5,4.3,0.2c0.8,0.3,1.7,0.6,2.2,0.8c2.2-0.7,6.3-1,6.9-1.4c4.8,0.3,11.3,0.3,14.4,1.1c1.4,0.1,1.6-0.2,2.1-0.3
		c-0.8-0.1-1.7-0.1-2.2-0.2c2.7,0.2,8.1,0.1,8.8,0.7c3.4-0.2-1.9-0.5,2.8-0.4l-0.6-0.2c9.3-0.7,15.1,1.3,25.5,0.4
		c-0.7,0-1.1,0.1-1.2,0.1c11.8-0.2,24.3,0.4,35.9,0.1c3.3,0,3.7,0.1,5.7,0.3l0.7-0.2l3.4,0.2c4.9,0.1,8.5-0.3,14.6,0l-0.8,0.1
		c2.2,0,7,0.1,6.7,0c0.2,0,0.7,0.1,1.6,0l0.1,0l5.5,0.1c4.2,0-0.7-0.1,5.5,0c2.2,0,4.8,0.1,5.7,0.1c-0.9,0-2.2,0-2.4,0l2.1,0
		c0.4,0,2,0-3.2,0.1l-3.6,0l-1.2,0l3-0.1c-1.7,0-2.8,0-4,0.1c-0.3,0-0.8,0-1.5,0.1l-3.5,0c-0.4,0.1,1.6,0.1-0.8,0.1
		c-1.7,0,1.6-0.1-1.1-0.1c-1.7,0.1-1.2,0.1-3.2,0.1c-0.3,0,0.1,0.1,0.9,0.1c-1.8,0-4.7,0.1-5.7,0c-1.8,0.1-6.1,0.1-5.9,0.3
		c-0.6,0-3.2-0.1-4.8-0.1c3,0.2-6.2,0.1-5.4,0.4c-2.2-0.3-8.1,0-12-0.1c0.2,0,0.7,0.1,1,0.1c-2.2,0.1-2.9,0.2-4.3,0.3
		c-0.3-0.3-3.7-0.3-5.6-0.5c-2.7,0.4,1.7,0.4,0.8,0.7c0.1-0.3-4.7-0.2-3.8-0.5c-2.1,0.2-1.8,0.1-2.9,0.4c-0.4-0.5-1.9,0-3.7-0.3
		c-3,0.3-0.8,0.5-4.1,0.4C945.8,33.5,948.8,33.7,948.8,33.7z M870,33.4L870,33.4c0.7,0,1.3,0,1.6,0C871.3,33.4,870.9,33.4,870,33.4z
		 M863.4,33.4c0.8,0,1.8,0,2.9,0c0.2-0.2,0-0.4-0.7-0.3C866,33.1,864.4,33.3,863.4,33.4z M877.4,30c-1-0.1-1.4,0-1.5,0.1
		c0.5,0,1.1,0,1.8,0.1c0,0,0.1,0,0.1,0.1C877.7,30.1,877.6,30,877.4,30z"/>
	<path class="st0" d="M879.3,30.6c0.2,0,0.2,0,0.4,0c-0.2,0-0.4,0.1-0.6,0.1c-0.1-0.1-0.3-0.1-0.4-0.2
		C878.9,30.6,879.1,30.6,879.3,30.6z"/>
	<path class="st0" d="M279.4,31.4l0.1,0c-0.1,0-0.2,0-0.3,0.1C279.4,31.4,279.4,31.4,279.4,31.4z"/>
	<polygon class="st0" points="772,35.1 772.1,35 772.6,35.1 	"/>
	<path class="st0" d="M243,32.7c-0.1,0-0.2,0.1-0.5,0.1C242.5,32.8,242.7,32.8,243,32.7z"/>
	<path class="st0" d="M227.2,32.7l-2.2,0.1C226,32.8,226.7,32.7,227.2,32.7z"/>
	<path class="st0" d="M215.1,32.8c-0.2,0-0.2-0.1-0.2-0.1c0,0,0,0,0,0L215.1,32.8z"/>
	<path class="st0" d="M407.6,34.7c0.2,0,0.3,0,0.5,0C409.2,34.9,408.4,34.8,407.6,34.7z"/>
	<path class="st0" d="M350.3,33c0.6,0.1,1.2,0.2,1.8,0.3C351.1,33.3,350.4,33.3,350.3,33z"/>
	<path class="st0" d="M471.6,35.9L471.6,35.9c0.1,0,0.3,0,0.4,0L471.6,35.9z"/>
	<path class="st0" d="M354.8,33.2c-1,0.1-1.9,0.1-2.7,0C353,33.2,354,33.2,354.8,33.2z"/>
	<path class="st0" d="M162.7,32.3l-0.6,0c0,0,0,0-0.1,0L162.7,32.3z"/>
	<path class="st0" d="M162,32.2l-0.6,0C161.7,32.2,161.9,32.2,162,32.2z"/>
	<path class="st0" d="M160,32.2l1.4,0C160.9,32.2,160.3,32.2,160,32.2z"/>
	<path class="st0" d="M178.7,32.4l0.2,0.1C178.8,32.4,178.7,32.4,178.7,32.4z"/>
	<path class="st0" d="M183.6,32.5c-1.2,0-2.9,0.1-4.5,0l-0.2,0C179.6,32.5,182.5,32.4,183.6,32.5z"/>
	<path class="st0" d="M203.9,31.7l-4.1,0.1c0.7-0.1,1.7-0.2-0.2-0.2C204.7,31.2,198.5,31.7,203.9,31.7z"/>
	<path class="st0" d="M216.5,31.4c-2.2,0,0-0.2-0.1-0.2C217.8,31.3,218.2,31.3,216.5,31.4z"/>
	<path class="st0" d="M308,30.9l-0.2-0.5C309.4,30.4,307.8,30.6,308,30.9z"/>
	<polygon class="st0" points="325.5,33.4 323.8,33.7 323,33.2 	"/>
	<polygon class="st0" points="335.8,29.7 335,29.6 337.9,29.8 	"/>
	<path class="st0" d="M489.3,29.2l-0.5,0.9C487.7,29.9,487.5,28.9,489.3,29.2z"/>
	<path class="st0" d="M555.6,30c0.7-0.4,2.6-0.7,3.7-0.3C557.9,29.7,556.4,30.1,555.6,30z"/>
	<polygon class="st0" points="754.5,29 753.1,28.7 755.6,28.9 	"/>
</g>
<g>
	<path class="st0" d="M35.3,17.2c-0.6,0-0.3,0,1.3,0l1.1,0L35.3,17.2z"/>
	<path class="st0" d="M46,17.3c1.9,0,4,0.1,2.8,0.1c-1.9-0.1-2.3-0.1-4.3-0.1c-1.6,0-2.8,0-2.5,0c-0.6,0-2.4,0-3.3,0
		c2.1,0,4.7,0,7.5,0C46.7,17.3,46.1,17.3,46,17.3z"/>
	<path class="st0" d="M201.9,16.5l-1,0.1C201.2,16.5,201.5,16.5,201.9,16.5z"/>
	<path class="st0" d="M298.5,15.8c-0.7,0-1-0.1-1.1-0.2C298.2,15.7,298.7,15.8,298.5,15.8z"/>
	<path class="st0" d="M315,15c-0.4,0-0.7,0-1,0.1C314.4,14.9,314.8,14.9,315,15z"/>
	<path class="st0" d="M201.9,16.5l2.6-0.2C204.7,16.5,203.2,16.5,201.9,16.5z"/>
	<path class="st0" d="M67.5,17.6c-0.5,0-1,0-1.4,0C66.5,17.6,67,17.6,67.5,17.6C67.4,17.6,67.5,17.6,67.5,17.6z"/>
	<path class="st0" d="M159.3,16.3l-0.8,0c-0.2-0.1-0.4-0.1-0.7-0.2L159.3,16.3z"/>
	<path class="st0" d="M126.7,16.5c0.7,0,1,0.3,1.3,0.4c-0.4-0.1-1-0.2-1.6-0.2C126.3,16.6,126.4,16.5,126.7,16.5z"/>
	<path class="st0" d="M74.8,17.1l-0.9,0C74.1,17.1,74.5,17.1,74.8,17.1z"/>
	<path class="st0" d="M182.7,16.1c0.1-0.1,0.2-0.1,0.3-0.2C183,16,182.9,16,182.7,16.1z"/>
	<path class="st0" d="M1097,17.9C1096.9,17.9,1097,17.9,1097,17.9C1097.2,17.9,1097.2,17.9,1097,17.9z"/>
	<path class="st0" d="M1134.8,17.2l-0.5,0c0,0-0.1,0-0.1,0L1134.8,17.2z"/>
	<path class="st0" d="M345.2,14c-0.1,0-0.1,0-0.1,0C344.3,13.9,344.8,13.9,345.2,14z"/>
	<path class="st0" d="M622.4,13.9c-3.1,0.7,5.1,0.9,0.4,1.7C623.2,15.3,618.5,14.4,622.4,13.9z"/>
	<path class="st0" d="M68.3,17.6c0.4,0,0.9,0,1.3,0C69.1,17.6,68.7,17.6,68.3,17.6z"/>
	<path class="st0" d="M622.8,15.7L622.8,15.7l-0.5,0.1C622.5,15.7,622.6,15.7,622.8,15.7z"/>
	<path class="st0" d="M414.8,14.1c-0.1,0.1-0.4,0.2-0.7,0.3C414.1,14.3,414.3,14.2,414.8,14.1z"/>
	<path class="st0" d="M363,15.3l1.3-0.1C363.7,15.2,363.3,15.3,363,15.3z"/>
	<path class="st0" d="M441.7,15.1c0.7-0.1,0.9-0.2,1.9-0.1c-0.1,0-0.2,0.1-0.3,0.1C442.9,15,442.5,15,441.7,15.1z"/>
	<path class="st0" d="M469.7,15c-0.2,0-0.3,0.1-0.5,0.2c-0.3,0-0.6,0-0.9,0L469.7,15z"/>
	<path class="st0" d="M1011.8,18.8c0.6-0.1,1-0.2,1.3-0.3C1012.7,18.7,1016.8,18.7,1011.8,18.8z"/>
	<path class="st0" d="M67.5,17.5c0.2,0,0.4,0,0.8,0.1C68,17.6,67.7,17.6,67.5,17.5C67.3,17.6,67.3,17.5,67.5,17.5z"/>
	<path class="st0" d="M442.8,21.1l4.4-0.1C446,21,444.4,21.1,442.8,21.1z"/>
	<path class="st0" d="M810.9,20l1,0.1C811.6,20.1,811.2,20.1,810.9,20z"/>
	<path class="st0" d="M460.5,21.1c0.8-0.3,1.6-0.4,2.5-0.5c0.2,0.1,0.4,0.1,0.5,0.2L460.5,21.1z"/>
	<path class="st0" d="M1013.2,18.4C1013.1,18.4,1013.1,18.4,1013.2,18.4C1013.1,18.4,1013.1,18.4,1013.2,18.4z"/>
	<path class="st0" d="M1042.5,18.9c-4.2,0.1-2-0.3-2.9-0.6c-5.1-0.1-2.3,0.3-4.1,0.5c-3.2-0.1-5.6-0.4-7.9-0.4
		c-0.2,0.1-0.6,0.1-0.1,0.2c-3.3-0.3-9.9,0.1-13.8-0.3c-0.3,0-0.4,0.1-0.5,0.1c0.6-0.2,0.7-0.5,0.6-0.6c-1.9,0-3.5-0.3-4.2,0
		c1.2,0,1.3,0.1,1.8,0.2l-2-0.1c-1.8,0.5,2.7,0.1,2.7,0.5c-3.9-0.1-8.4-0.5-11.4-0.3c-0.6,0.5,7,0.1,3,0.5l4.6-0.2
		c-3.5,0.7,2.8-0.1-0.4,0.7c-6.1,0.2-6.8-0.2-12.8,0c-1.4-0.3,0.4-0.4-0.9-0.7c-8.6-0.4-6.8,1.3-13.1,0.7c-1.6-0.3-2.3-1-6.8-0.6
		l1.5,0.6c-5.9,0.1-3.3-0.8-9.5-0.4c1.1,0.2,4.6,0.2,3.7,0.3c-4,0.5-2.8-0.3-5.9-0.3l-0.6,0.6c-6.2-0.1-13.1-0.3-20-0.5
		c0.4,0.2,1.6,0.4-0.1,0.6c-8.7-0.2-18.6,0.2-27,0.7l-3.2-0.6c-0.7,0-1.4,0.3-0.6,0.4c-3.3,0.2-0.2-0.4-1.7-0.6
		c-1.9,0-2.5,0.3-1.3,0.5c-5.8-0.4-16.5-1-22.6-0.3l1.2,0.2c-4.7,0.3-5.4-1.2-9.8-0.6l0.8,0.1c-10.3,0.3-21.7-0.2-29.6,0.8
		c-1.5-1-10.2,0.5-10.9-0.9c-5.9,0.7-4.2,0.9-12.5,1.5c-2.2,0.1-3.3-0.9-6-1l-0.1,0.7l-3.7-0.8l-2,0.9l-2.6-0.2c1,0,2.2-0.3,2-0.6
		c-4-0.3-9.8,0.6-9.9,1l-9.5-0.6c0.2,0.3,1.8,0.4,3.1,0.6c-5.1-0.8-0.9,0.8-5.6,0.1c0.6-0.2-0.3-0.5-0.4-0.6
		c-2.3,0.5-7.6,0.5-11.5,0.3l0.7,0.5c-7,0.2-14.8-0.2-22.7-0.2c2.8-0.3,2.2-1.2-0.1-1.3l-0.9,0.9c-1.5-0.5,2.4-0.3-0.7-1
		c-2.9,0.1-2,1-0.3,1.2l-3.6-0.3c-0.2,0.3,0.6,0.4,0.8,0.7c-1.5-0.5-6.2,0.9-8.3,0l-0.2,0.3c-7.9,0-11.5-0.3-17.9-0.3
		c-0.1-0.8-2.6-0.6-4.6-1.2c-4.7,0.3-10,0.9-15.7,0.8c-4-0.4-1.2-0.7-3-1.1c-0.3,0.7-6,0.6-3,1.1c-6.8-0.1-8.7-0.1-17.4-0.7
		c0.9-0.3,2-0.4,1.4-0.7c-1.6-0.1-3.6,0.3-3.3,0.6l0.4,0.1c-9.7-1.1-22.4,2.1-30.1,0.6l0.4,0.1l-8-0.8c-3.7,0.1,2.2,0.5-0.5,1
		c-8.6-1.2-13.7,0.2-20.8-0.6c-5.5,2.2-19.5-0.1-27,1.2l0.4-0.5c-1.9-0.5-2.3,0.3-3.7,0.4c0.2-0.4,2.1-0.5,0.9-0.7
		c-16.3-0.6-33.6,0.7-50.3,1.2c-6.1,0.1-3.5-2.6-11.2-1.4l2.2,0.9c-12.3-1.1-25.2,0-37.2-1c0.7,0.2,0.7,0.5,1.9,0.5
		c-2.5,0.7-9.4,0-9.5-0.5c-1.9,0.1-0.4,0.5-1.6,0.8c-2.6,0.4-6.4-0.9-7.8-0.2c-0.2,0.1,0.7,0.2,1.2,0.3c-1.7-0.3-7.8,0.1-6.2-0.7
		c-4.5,0.4-8.7-0.4-12.3,0.1c-2.4-0.9-7.7,0.4-8.5-0.8c0.3,1.2-7.9,1-10.8,0.4c1,0.4-2.5,0.4-1.4,0.9c-3.3,0-6.3-0.3-5.7-0.9
		c-6,1.4-12.1-1.2-15.5,0.6c-9.7-0.7-18.7-1.1-27.4-1.4c0.3,1.2,9.6,0.1,9.3,1.4c-8.3-0.5-13.1-1.5-21.3-1.3
		c-2.1,0.1,1.2,0.5,1.9,0.7c-8.3-0.5-16,0-23.3-0.6c0,0.1,0.8,0.2,1.6,0.3c-1.5,0-3.4,0.1-3.2-0.4l1.4,0.1c2.3-0.7-5.8-1.5-6-1.9
		c2.5,1.4-7.3,0.3-3.4,2.2c-1-0.1-2.2-0.3-1.9-0.7c-1.4,0.1-1.9,0.3-0.4,0.7c-5.2-0.3-3.3-0.8-8.1-0.8c0,0.2,1,0.3,1.5,0.6
		c-2.4-0.5-4.8-0.9-8.8-0.7c0.2,0.1-0.2,0.3,1,0.3c-6.8-0.1-11.6-1.2-19.1-0.8c2.2,1-2.5,0.3-2.9,1.2l-4-0.3l1.6-0.4
		c-3.5,0-6.6-0.6-9.7-0.3l2.6,0.3l-6.6-0.2l3.7-0.3c-3.6-0.4,0.4-1-4.3-0.8c1,0.1-3.5,0-5.4,0.5l0,0c-1.7-0.3-3.5-0.5-6.2-0.3
		c-0.7,0.3,0.5,0.9,0.1,1c-1.7-0.7-8.3-0.2-10.4-0.9c0.7,0.2,0.8,0.6,0.5,0.7l-1.4-0.5c-1.6,0.2-1.9,0.2-1.6,0.6
		c-4.9,0.1,1.6-1-4.3-0.6c0.5,0,0.2,0.1,1.2,0.2c-5.9,0.2-11.3-0.3-16.7-0.1c-1.6,0.7,4.7,0.2,2.9,0.8c-7.8-0.2-16.1-0.9-23.6-0.8
		l1.4-0.1c-1-1-5.6,0.5-9.4,0c0.9,0.1,1.2,0.5,1,0.4c-5.1,0.1-10.5-0.3-18.3-0.6l1,0.2c-3,0.2-8,0.1-11.3,0.2
		c-1-0.2-2.8-0.2-1.7-0.5c-10.1,1.1-19.3-0.7-28.2,0.2c1.1,0,2.6,0.2,1.7,0.2l-7.6-0.2c0.6-0.3,1-0.2,2.6-0.4c-1-0.2-3.1-0.3-5-0.3
		c3.4,0.2,0,0.5-1.5,0.6c0.2-0.1-0.3-0.2-0.1-0.3c-4,0.5-0.7-0.6-6.1-0.2l0.3,0.1c-2-0.1-3.9-0.3-6.1-0.2c-0.9,0.3,2.2,0.1,2.3,0.4
		c-3.1,0-6.1-0.6-8.9-0.3c1.3,0.1,3.2,0.1,4.5,0.2c-3,0.3-3.4,0.2-5.7,0.3l0.2,0l-5.2,0.1l1.3-0.1c-3.9-0.7-7.9-0.2-13.1-0.6
		c5.1,0.4,0.8,0.2,1.2,0.5c-1.3,0.1-3.3,0.1-2.8,0.2c-2.5-0.2-4.1,0.1-7.6-0.2c-0.2,0.1-2.6,0-2.1,0.2c-3.2-0.1,0.8-0.1,0.5-0.2
		c-4.9-0.3-11.6,0.2-18.7-0.2c-6.1-0.2-7.2-0.4-12.9-0.4c-1.9,0.1,1.6,0.2,1.6,0.2c-3.1,0.1-5.4,0-8.3,0c0.6,0,0,0.1-0.9,0.1
		c-2.3,0-1.6-0.2-4.6-0.1c0.5,0,1.2,0.1,2.3,0.2c-2.8-0.1-5.5-0.1-8.3-0.2c-0.8,0,1.7,0.1,2.7,0.1c-3.2-0.1-8.2-0.2-9.3-0.2l2.1,0
		c-1.2,0-0.6,0,0.3,0.1c2.7,0.1,4,0,4.1,0l-2,0c2.1-0.2,8.2,0,12.2,0.1l-1.7-0.2l4.2,0.1c0.9,0,1.5-0.2-0.5-0.2
		c2.9-0.1,2.6,0.1,5.1,0c0.3,0,0.2,0-0.1,0l2.9,0.1c-0.6,0,0.5-0.2-1.3-0.1c5.1-0.2,8.3,0.1,10.2,0l-0.4,0c7.1,0.1,0.7,0.2,6,0.4
		l3.6-0.5l0.7,0.2c0.7,0,2.2,0,1.9-0.1c2.7,0.1-0.5,0.1,1.1,0.2c3.5-0.2,9.8,0.1,10.6-0.3c1.3,0.2-3.4,0.2,0.4,0.3
		c1.1-0.5,4.4,0.1,7.6-0.1c-1-0.3-4.1-0.1-0.8-0.3c2,0.4,6.3-0.1,9-0.1c0.1,0.4,5.9,0.1,10.5,0.2c-0.3-0.1,8.6-0.3,12.9-0.4
		l-0.1-0.1c0.8,0.4,5.2,0.3,8.4,0.4c-0.1-0.3-0.7-0.4-2.4-0.5l3,0c0.7,0.1,1.6,0.2,3.6,0.3l-0.8-0.4c4,0,8.1,0.4,13.2,0.1
		c0.3,0.4-4.1,1,1.3,1.3c0.2-0.2,0.4-0.5-1-0.6c0.5,0,1.7,0.2,2.6,0.1l-2.2-0.3c2.3-0.2,1.2,0.3,3.1,0.2c0-0.3,1.4-0.2,1.1-0.4
		c-0.5,0-1.6,0.1-2.4,0c2.1-0.1,4.7-0.2,5.5-0.5c-0.2,0.2,0,0.4,1.5,0.4c4,0,1.4-0.4,3.7-0.5c1,0.2,3.5,0,3.6,0.4
		c1.2,0,1.4-0.2,1.8-0.3c2.1,0.2,9.7,0,7.3,0.5l-0.5,0c0.1,0,0.2,0,0.3,0c0,0,0,0,0,0h0c6.8,0.5,14.1-0.3,20.8-0.1l0-0.2
		c4,0.2,8.9,0.1,11.8,0.5c1.2,0,2.8-0.3,2.3-0.6c3.1,0.1,3.4,0.3,7.9,0c-3.1-0.3,1.1-0.3-3.2-0.2c4-0.2,4.9-0.5,9.2,0
		c-1.5-0.5,3-0.6,4.9-0.5l-2.8,0.4c2.1,0.1,4,0,5.9,0l-1-0.7c8.2-0.9,14.7,1.3,21-0.1c2.2,0.5-4.4,0.4-2.5,0.9
		c3.8-0.1,7.7-1.1,8.9-1.1c5.1-0.4,4.8,1,10.2,0.7c-0.7,0.3-1.3,0.9,2.7,1.2c3.8-0.1,4.6-1.1,2.2-1.3c-0.9,0-1.3,0.1-1.3,0.2
		c-1.2-0.1-2.8-0.2-1.3-0.5l0.5,0.3c1.9-0.3,7-0.3,5.8-0.7c2.8,0.2,1.2,0.4-0.9,0.6c4.8-0.4,7.5,0,12.5-0.3
		c-0.8,0.2-1.5,0.5-0.7,0.5c7.3-0.4,3.2,0.5,8.1,0.6c2.8-0.4-1-1,4-0.7c3-0.3,0.6-0.7-0.6-1c4.5,0.5,8.5-0.4,11-0.5l-2.4-0.2
		c1.4,0.1,2.6,0.1,3.8,0.1l-1.4,0.6c1.4-0.1,2.6-0.1,2.6-0.3c1.4,0.4-1.1,0.9,1.8,1.4c1.9-0.3,5.7,0.3,6.3-0.5
		c-5.9,0.3,0.6-0.8-4.3-0.9c1,0.1,2.1,0.1,3.5,0c0.2-0.1-0.2-0.2-0.6-0.2c5.6-0.7,2.6,0.8,8.4,0.8c-0.7-0.4,1.3-0.8,2.3-0.7
		c-2.3,0-1.1,0.7,1,1.1c3.7-0.4,4.1,0.2,6,0.2l-2.2,0.2c0.8,0.4,2.6,0.4,5.2,0.5c0.2-0.3-2.4-0.2-1.4-0.4c2.9,0.8,6.5-0.8,10.6-0.3
		c1.9-0.3,0.2-0.8,1.8-1c4.5,0.6,4.9-0.6,9.6-0.2c-1.4,0.6-1.6,0.5,1.7,1l-7.8-0.4l5,0.9c-2.4,0-5-0.4-6.4-0.3
		c2.4,0.5,2.1,0.3,1,0.8c3.2-0.9,6.4,0.5,10.1-0.1l-0.1-1.5c5.6-0.7,9.9,0.7,17.2,0.3l-2.3,0.3c1,0.6,4.5,0.1,6.8,0.3
		c-0.2-0.5,1.3-0.7,2.3-1c-0.1,0.4,5.3-0.1,6,1l3.2-0.7c5.9-0.3,6.7,1.5,12.3,1.3c-1.7-0.6,0.9-1-2.9-1.4c1.9,0,3.6-0.1,3.6,0.3
		c1.1-0.3,5.2,0.7,7,0.2c0.8,0.2,1.1,0.8,3.2,0.7c0.2-0.1,0-0.3,0-0.3c0,0.3,3.3,0.4,1.5,0.9c5.8-1.7,16.2,0.1,21.3-1.3
		c4.1,0.2,9.1,0.3,12.8,0.4c-0.2-0.2,0-0.3-0.7-0.2c5.1-0.5,3.2,1.6,9,1c3-0.9-3.1-0.5-1.2-0.8c0.8-1.8,7.1,0.2,11-0.8l-1-0.1
		c3-0.6,7.4,0.7,12.3,0.5c0,0-0.2-0.2,0-0.3c3.4,0.9,9.7,1.2,14.5,1.5c-1.5-0.7-2.2-0.4-1.3-1.1c2.1,0.1-0.6,1.2,3.6,1.4
		c1.4-0.4,4.4-0.7,4.8-1.5l-4,0c2-1,5.2,0,7.3-0.1l-0.3-0.4c6.1,0.1,6.2,1.3,12.8,1.2l-0.7,0.3c3.6,1.1,3-0.6,6.6,0.2l1.1-1.1
		c2.4,0.3,8.3,1.1,12.6,1.3c-2.4-0.8-7.4-1.3-10.5-1.8c2.4,0,8,0.1,9.2,0.6c-0.9-0.1-2.1-0.4-3.1-0.2c2.9,0.9,6.7,1.3,11.4,1.3
		c-0.8-2.2,12.2-0.6,15.6-2.2c8.3,0.8,16.5-0.3,26.1-0.2c-3.4,1.7,2.8,0.1,2.2,1.8c2.3,0.1,3.1,0.1,3.3,0l6.8-1
		c1.6-0.5-2.1-0.4-1.9-0.8c4.9-0.1,2.1-0.7,5.3-1.2c-0.7,0.6,1.7,0.9,4.5,0.7l-4,0.8c6.9,0.9,6-1.4,12.9-0.5l-2.2-0.5
		c3.6,0.3,13.1,0,16.6,1.4c0.6-0.2,1.5-0.7-0.1-0.8c8.5-0.2,19,1.5,25.6,0.7l-0.6-0.4c1.6,0.1,2.8,0.8,4.8,0.4
		c-0.1-0.2-0.6-0.4,0.1-0.4c0.8,0.1,4.2,0.7,6.3,0.5l-1.8-0.5c8.3-0.5,12.7,1.1,19.7,1.4c0-1.2,6.5-1.6,9.8-1.8l-0.1-0.2
		c9.7-0.1,16.4,1,25.4,1.5c5.6-1.2,18.8-0.5,27.8-1.1c-1.4,0.2,0.2,0.9,1.8,1c2.1-0.2,5.8,0.8,5.5-0.2l-0.7,0c1.6-1,5.9-0.7,9.3-0.7
		l0.6,1.3c8.8-1.9,23.1,0.8,27.9-0.9c2.1,0.3,4.8,0.3,6.9,0.7l-0.1-0.7c5.9-0.1,8.8-0.2,16.1,0l-1.5-0.5c4.1,0,5.2,1.9,9,2l1.1-1
		c7.2,0,14.4-0.7,21.5,0.2c-0.1-0.1-0.3-0.4-1.5-0.4c3.4,0,13-0.5,11.8,0.7c0.1-0.8,7.4,0,11.2,0.3l-0.6-0.6
		c3.3,0.8,3.4,0.9,7.9,1.2c1.1-0.1,0.9-0.4-0.5-0.3c3.6-0.3,2.8,0.5,7.2,0.3l-1.6-0.4c3.7,0,3.4,0.2,5.4,0.6c2.3,0.2,7-0.1,7.6-0.6
		c0.5,0.3,2.5,0.7,4.7,0.6c0.3-0.2-0.5-0.3-0.9-0.3c6.2-0.3,9.2,0.6,13.5,0.2c0.1-0.2,0.4-0.2,0.7-0.3c-4.9,0-8.9,0-8.5,0
		c0-0.5,4-0.5,0.8-1.2c3.2,0.4,8.6,1.2,12.5,1c0.2,0,0.4-0.1,0.5-0.2l-0.4-0.1c0.9,0,1.7,0,2.4,0.1c1.2-0.1,2-0.1,3.2-0.1
		c0.5-0.4,4.6-0.2,6.5-0.2c-0.2,0.5,2.4,0.4,0,0.8c0.3,0-0.4-0.1-1.7-0.1c-0.3,0-0.6,0-0.8-0.1c0,0,0.1,0,0.1,0c-1.3,0-3,0-4.9-0.1
		c1.6,0.3,3.2,0.5,5.4,0.2c1,0.3,2.1,0.6,2.8,0.8c2.7-0.7,7.9-1,8.7-1.4c6,0.3,14.2,0.3,18,1.1c1.7,0.1,2-0.2,2.6-0.3
		c-1-0.1-2.2-0.1-2.7-0.2c3.4,0.2,10.2,0.1,11,0.7c4.3-0.2-2.4-0.5,3.5-0.4l-0.8-0.2c11.7-0.7,19,1.3,32,0.4c-0.9,0-1.3,0.1-1.5,0.1
		c14.8-0.2,30.5,0.4,45.1,0.1c4.2,0,4.6,0.1,7.1,0.3l0.9-0.2l4.3,0.2c6.1,0.1,10.6-0.3,18.4,0l-1,0.1c2.8,0,8.8,0.1,8.4,0
		c0.3,0,0.9,0.1,2,0l0.1,0l6.9,0.1c5.3,0-0.8-0.1,6.9,0c2.8,0,6.1,0.1,7.1,0.1c-1.1,0-2.8,0-3.1,0l2.6,0c0.5,0,2.5,0-4,0.1l-4.5,0
		l-1.5,0l3.8-0.1c-2.2,0-3.5,0-5.1,0.1c-0.4,0-1,0-1.9,0.1l-4.4,0c-0.5,0.1,2,0.1-1,0.1c-2.1,0,2-0.1-1.4-0.1
		c-2.2,0.1-1.5,0.1-4.1,0.1c-0.4,0,0.2,0.1,1.2,0.1c-2.3,0-6,0.1-7.1,0c-2.3,0.1-7.6,0.1-7.4,0.3c-0.7,0-4-0.1-6-0.1
		c3.8,0.2-7.8,0.1-6.8,0.4c-2.8-0.2-10.1,0-15.1-0.1c0.3,0,0.8,0.1,1.3,0.1c-2.8,0.1-3.6,0.2-5.4,0.3c-0.4-0.3-4.7-0.3-7.1-0.5
		c-3.4,0.4,2.1,0.4,1,0.7c0.2-0.3-6-0.2-4.8-0.5c-2.6,0.2-2.3,0.1-3.6,0.4c-0.5-0.5-2.4,0-4.6-0.3c-3.8,0.3-1,0.5-5.1,0.4
		C1038.8,18.7,1042.5,18.9,1042.5,18.9z M943.4,18.6L943.4,18.6c0.9,0,1.6,0,2,0C945.1,18.6,944.5,18.6,943.4,18.6z M935.1,18.6
		c1,0,2.3,0,3.6,0c0.3-0.2,0-0.4-0.9-0.3C938.3,18.3,936.4,18.5,935.1,18.6z M952.7,15.2c-1.3-0.1-1.8,0-1.9,0.1
		c0.6,0,1.3,0,2.3,0.1c0,0,0.1,0,0.2,0.1C953.1,15.3,953,15.2,952.7,15.2z"/>
	<path class="st0" d="M955.1,15.8c0.2,0,0.3,0,0.5,0c-0.3,0-0.5,0.1-0.8,0.1c-0.2-0.1-0.3-0.1-0.5-0.2
		C954.6,15.8,954.9,15.8,955.1,15.8z"/>
	<path class="st0" d="M200.8,16.6l0.2,0c-0.1,0-0.3,0-0.4,0.1C200.7,16.6,200.7,16.6,200.8,16.6z"/>
	<polygon class="st0" points="820.2,20.3 820.2,20.2 820.9,20.3 	"/>
	<path class="st0" d="M154.9,17.9c-0.1,0-0.3,0.1-0.6,0.1C154.3,18,154.6,18,154.9,17.9z"/>
	<path class="st0" d="M135.1,17.9l-2.8,0.1C133.5,18,134.4,17.9,135.1,17.9z"/>
	<path class="st0" d="M119.9,18c-0.2,0-0.2-0.1-0.3-0.1l0,0L119.9,18z"/>
	<path class="st0" d="M361.9,19.9c0.2,0,0.4,0,0.6,0C363.9,20.1,363,20,361.9,19.9z"/>
	<path class="st0" d="M289.9,18.2c0.8,0.1,1.5,0.2,2.3,0.3C290.9,18.5,289.9,18.5,289.9,18.2z"/>
	<path class="st0" d="M442.3,21.1C442.3,21.1,442.3,21.1,442.3,21.1c0.2,0,0.3,0,0.5,0L442.3,21.1z"/>
	<path class="st0" d="M295.6,18.4c-1.3,0.1-2.4,0.1-3.3,0C293.3,18.4,294.5,18.4,295.6,18.4z"/>
	<path class="st0" d="M53.9,17.5l-0.7,0c0,0,0,0-0.1,0L53.9,17.5z"/>
	<path class="st0" d="M53.1,17.4l-0.8,0C52.7,17.4,53,17.4,53.1,17.4z"/>
	<path class="st0" d="M50.6,17.4l1.7,0C51.7,17.4,51,17.4,50.6,17.4z"/>
	<path class="st0" d="M74.1,17.6l0.2,0.1C74.2,17.6,74.1,17.6,74.1,17.6z"/>
	<path class="st0" d="M80.2,17.7c-1.5,0-3.7,0.1-5.7,0l-0.2,0C75.3,17.7,78.8,17.6,80.2,17.7z"/>
	<path class="st0" d="M105.8,16.9l-5.1,0.1c0.9-0.1,2.1-0.2-0.3-0.2C106.8,16.4,99,16.9,105.8,16.9z"/>
	<path class="st0" d="M121.7,16.6c-2.8,0,0-0.2-0.1-0.2C123.3,16.5,123.7,16.5,121.7,16.6z"/>
	<path class="st0" d="M236.6,16.1l-0.3-0.5C238.5,15.6,236.4,15.8,236.6,16.1z"/>
	<polygon class="st0" points="258.6,18.6 256.6,18.9 255.6,18.4 	"/>
	<polygon class="st0" points="271.6,14.9 270.7,14.8 274.2,15 	"/>
	<path class="st0" d="M464.7,14.4l-0.6,0.9C462.6,15.1,462.3,14.1,464.7,14.4z"/>
	<path class="st0" d="M548.1,15.2c0.9-0.4,3.3-0.7,4.7-0.3C550.9,14.9,549,15.3,548.1,15.2z"/>
	<polygon class="st0" points="798.1,14.2 796.4,13.9 799.6,14.1 	"/>
</g>
</svg>
